<?xml version="1.0" encoding="UTF-8" standalone="no"?>
<!-- Created with Inkscape (http://www.inkscape.org/) -->

<svg
   xmlns:dc="http://purl.org/dc/elements/1.1/"
   xmlns:cc="http://creativecommons.org/ns#"
   xmlns:rdf="http://www.w3.org/1999/02/22-rdf-syntax-ns#"
   xmlns:svg="http://www.w3.org/2000/svg"
   xmlns="http://www.w3.org/2000/svg"
   xmlns:xlink="http://www.w3.org/1999/xlink"
   xmlns:sodipodi="http://sodipodi.sourceforge.net/DTD/sodipodi-0.dtd"
   xmlns:inkscape="http://www.inkscape.org/namespaces/inkscape"
   width="32"
   height="32"
   id="svg2"
   version="1.1"
   inkscape:version="0.47pre3 r22311"
   sodipodi:docname="www_32.svg"
   inkscape:export-filename="/Users/gerdbartelt/Documents/Fakturama/com.sebulli.fakturama/icons/www_32.png"
   inkscape:export-xdpi="90"
   inkscape:export-ydpi="90">
  <defs
     id="defs4">
    <linearGradient
       id="linearGradient3743">
      <stop
         style="stop-color:#ffffff;stop-opacity:1;"
         offset="0"
         id="stop3745" />
      <stop
         style="stop-color:#aeaeae;stop-opacity:1;"
         offset="1"
         id="stop3747" />
    </linearGradient>
    <linearGradient
       id="linearGradient3876">
      <stop
         style="stop-color:#f0f3f8;stop-opacity:1;"
         offset="0"
         id="stop3878" />
      <stop
         id="stop3727"
         offset="0.43954355"
         style="stop-color:#456697;stop-opacity:1;" />
      <stop
         style="stop-color:#324b6f;stop-opacity:1;"
         offset="0.86409569"
         id="stop3729" />
      <stop
         style="stop-color:#1f3047;stop-opacity:1;"
         offset="1"
         id="stop3880" />
    </linearGradient>
    <linearGradient
       id="linearGradient3935">
      <stop
         style="stop-color:#43a041;stop-opacity:1;"
         offset="0"
         id="stop3937" />
      <stop
         style="stop-color:#1e491d;stop-opacity:1;"
         offset="1"
         id="stop3939" />
    </linearGradient>
    <linearGradient
       id="linearGradient4301">
      <stop
         style="stop-color:#726c4c;stop-opacity:1;"
         offset="0"
         id="stop4303" />
      <stop
         style="stop-color:#cac6b0;stop-opacity:1;"
         offset="1"
         id="stop4305" />
    </linearGradient>
    <linearGradient
       id="linearGradient4293">
      <stop
         style="stop-color:#0e0072;stop-opacity:1;"
         offset="0"
         id="stop4295" />
      <stop
         style="stop-color:#020011;stop-opacity:1;"
         offset="1"
         id="stop4297" />
    </linearGradient>
    <linearGradient
       id="linearGradient3746">
      <stop
         style="stop-color:#a88400;stop-opacity:1;"
         offset="0"
         id="stop3748" />
      <stop
         style="stop-color:#8c6e00;stop-opacity:1;"
         offset="1"
         id="stop3750" />
    </linearGradient>
    <linearGradient
       id="linearGradient3736">
      <stop
         style="stop-color:#f9c400;stop-opacity:1;"
         offset="0"
         id="stop3738" />
      <stop
         style="stop-color:#c69c00;stop-opacity:1;"
         offset="1"
         id="stop3740" />
    </linearGradient>
    <linearGradient
       id="linearGradient3728">
      <stop
         style="stop-color:#937300;stop-opacity:1;"
         offset="0"
         id="stop3730" />
      <stop
         style="stop-color:#ffd84a;stop-opacity:1;"
         offset="1"
         id="stop3732" />
    </linearGradient>
    <linearGradient
       id="linearGradient3627">
      <stop
         style="stop-color:#c8c8c8;stop-opacity:1;"
         offset="0"
         id="stop3629" />
      <stop
         id="stop3635"
         offset="1"
         style="stop-color:#ffffff;stop-opacity:1;" />
    </linearGradient>
    <linearGradient
       id="linearGradient3594">
      <stop
         id="stop3602"
         offset="0"
         style="stop-color:#e1e1e1;stop-opacity:1;" />
      <stop
         style="stop-color:#5f5f5f;stop-opacity:1;"
         offset="1"
         id="stop3598" />
    </linearGradient>
    <inkscape:perspective
       sodipodi:type="inkscape:persp3d"
       inkscape:vp_x="0 : 526.18109 : 1"
       inkscape:vp_y="0 : 1000 : 0"
       inkscape:vp_z="744.09448 : 526.18109 : 1"
       inkscape:persp3d-origin="372.04724 : 350.78739 : 1"
       id="perspective10" />
    <inkscape:perspective
       id="perspective3645"
       inkscape:persp3d-origin="0.5 : 0.33333333 : 1"
       inkscape:vp_z="1 : 0.5 : 1"
       inkscape:vp_y="0 : 1000 : 0"
       inkscape:vp_x="0 : 0.5 : 1"
       sodipodi:type="inkscape:persp3d" />
    <linearGradient
       id="linearGradient3594-9">
      <stop
         id="stop3602-3"
         offset="0"
         style="stop-color:#ffffff;stop-opacity:0.98431373;" />
      <stop
         style="stop-color:#989898;stop-opacity:0.97254902;"
         offset="1"
         id="stop3598-8" />
    </linearGradient>
    <linearGradient
       inkscape:collect="always"
       xlink:href="#linearGradient3627-2"
       id="linearGradient3633-0"
       x1="0.5"
       y1="37.5"
       x2="15.5"
       y2="7.5"
       gradientUnits="userSpaceOnUse" />
    <linearGradient
       id="linearGradient3627-2">
      <stop
         style="stop-color:#ffffff;stop-opacity:1;"
         offset="0"
         id="stop3629-4" />
      <stop
         id="stop3635-8"
         offset="0.5"
         style="stop-color:#d9d9d9;stop-opacity:1;" />
      <stop
         style="stop-color:#ffffff;stop-opacity:1;"
         offset="1"
         id="stop3631-3" />
    </linearGradient>
    <inkscape:perspective
       id="perspective3794"
       inkscape:persp3d-origin="0.5 : 0.33333333 : 1"
       inkscape:vp_z="1 : 0.5 : 1"
       inkscape:vp_y="0 : 1000 : 0"
       inkscape:vp_x="0 : 0.5 : 1"
       sodipodi:type="inkscape:persp3d" />
    <inkscape:perspective
       id="perspective3831"
       inkscape:persp3d-origin="0.5 : 0.33333333 : 1"
       inkscape:vp_z="1 : 0.5 : 1"
       inkscape:vp_y="0 : 1000 : 0"
       inkscape:vp_x="0 : 0.5 : 1"
       sodipodi:type="inkscape:persp3d" />
    <inkscape:perspective
       id="perspective3859"
       inkscape:persp3d-origin="0.5 : 0.33333333 : 1"
       inkscape:vp_z="1 : 0.5 : 1"
       inkscape:vp_y="0 : 1000 : 0"
       inkscape:vp_x="0 : 0.5 : 1"
       sodipodi:type="inkscape:persp3d" />
    <inkscape:perspective
       id="perspective3884"
       inkscape:persp3d-origin="0.5 : 0.33333333 : 1"
       inkscape:vp_z="1 : 0.5 : 1"
       inkscape:vp_y="0 : 1000 : 0"
       inkscape:vp_x="0 : 0.5 : 1"
       sodipodi:type="inkscape:persp3d" />
    <inkscape:perspective
       id="perspective3913"
       inkscape:persp3d-origin="0.5 : 0.33333333 : 1"
       inkscape:vp_z="1 : 0.5 : 1"
       inkscape:vp_y="0 : 1000 : 0"
       inkscape:vp_x="0 : 0.5 : 1"
       sodipodi:type="inkscape:persp3d" />
    <inkscape:perspective
       id="perspective3671"
       inkscape:persp3d-origin="0.5 : 0.33333333 : 1"
       inkscape:vp_z="1 : 0.5 : 1"
       inkscape:vp_y="0 : 1000 : 0"
       inkscape:vp_x="0 : 0.5 : 1"
       sodipodi:type="inkscape:persp3d" />
    <inkscape:perspective
       id="perspective3696"
       inkscape:persp3d-origin="0.5 : 0.33333333 : 1"
       inkscape:vp_z="1 : 0.5 : 1"
       inkscape:vp_y="0 : 1000 : 0"
       inkscape:vp_x="0 : 0.5 : 1"
       sodipodi:type="inkscape:persp3d" />
    <inkscape:perspective
       id="perspective3719"
       inkscape:persp3d-origin="0.5 : 0.33333333 : 1"
       inkscape:vp_z="1 : 0.5 : 1"
       inkscape:vp_y="0 : 1000 : 0"
       inkscape:vp_x="0 : 0.5 : 1"
       sodipodi:type="inkscape:persp3d" />
    <inkscape:perspective
       id="perspective3699"
       inkscape:persp3d-origin="0.5 : 0.33333333 : 1"
       inkscape:vp_z="1 : 0.5 : 1"
       inkscape:vp_y="0 : 1000 : 0"
       inkscape:vp_x="0 : 0.5 : 1"
       sodipodi:type="inkscape:persp3d" />
    <inkscape:perspective
       id="perspective3730"
       inkscape:persp3d-origin="0.5 : 0.33333333 : 1"
       inkscape:vp_z="1 : 0.5 : 1"
       inkscape:vp_y="0 : 1000 : 0"
       inkscape:vp_x="0 : 0.5 : 1"
       sodipodi:type="inkscape:persp3d" />
    <radialGradient
       inkscape:collect="always"
       xlink:href="#linearGradient3594-8"
       id="radialGradient3604-3"
       cx="33.5"
       cy="1010.9872"
       fx="33.5"
       fy="1010.9872"
       r="5.5"
       gradientTransform="matrix(1,0,0,1.4545437,0,-459.66287)"
       gradientUnits="userSpaceOnUse" />
    <linearGradient
       id="linearGradient3594-8">
      <stop
         id="stop3602-0"
         offset="0"
         style="stop-color:#e1e1e1;stop-opacity:0.98431373;" />
      <stop
         style="stop-color:#5f5f5f;stop-opacity:0.97254902;"
         offset="1"
         id="stop3598-2" />
    </linearGradient>
    <inkscape:perspective
       id="perspective3707"
       inkscape:persp3d-origin="0.5 : 0.33333333 : 1"
       inkscape:vp_z="1 : 0.5 : 1"
       inkscape:vp_y="0 : 1000 : 0"
       inkscape:vp_x="0 : 0.5 : 1"
       sodipodi:type="inkscape:persp3d" />
    <inkscape:perspective
       id="perspective3707-9"
       inkscape:persp3d-origin="0.5 : 0.33333333 : 1"
       inkscape:vp_z="1 : 0.5 : 1"
       inkscape:vp_y="0 : 1000 : 0"
       inkscape:vp_x="0 : 0.5 : 1"
       sodipodi:type="inkscape:persp3d" />
    <inkscape:perspective
       id="perspective3848"
       inkscape:persp3d-origin="0.5 : 0.33333333 : 1"
       inkscape:vp_z="1 : 0.5 : 1"
       inkscape:vp_y="0 : 1000 : 0"
       inkscape:vp_x="0 : 0.5 : 1"
       sodipodi:type="inkscape:persp3d" />
    <linearGradient
       id="linearGradient3736-0">
      <stop
         style="stop-color:#f9c400;stop-opacity:1;"
         offset="0"
         id="stop3738-2" />
      <stop
         style="stop-color:#c69c00;stop-opacity:1;"
         offset="1"
         id="stop3740-4" />
    </linearGradient>
    <linearGradient
       id="linearGradient3728-3">
      <stop
         style="stop-color:#937300;stop-opacity:1;"
         offset="0"
         id="stop3730-9" />
      <stop
         style="stop-color:#ffd84a;stop-opacity:1;"
         offset="1"
         id="stop3732-0" />
    </linearGradient>
    <linearGradient
       id="linearGradient3746-2">
      <stop
         style="stop-color:#a88400;stop-opacity:1;"
         offset="0"
         id="stop3748-2" />
      <stop
         style="stop-color:#8c6e00;stop-opacity:1;"
         offset="1"
         id="stop3750-7" />
    </linearGradient>
    <inkscape:perspective
       id="perspective3967"
       inkscape:persp3d-origin="0.5 : 0.33333333 : 1"
       inkscape:vp_z="1 : 0.5 : 1"
       inkscape:vp_y="0 : 1000 : 0"
       inkscape:vp_x="0 : 0.5 : 1"
       sodipodi:type="inkscape:persp3d" />
    <inkscape:perspective
       id="perspective2954"
       inkscape:persp3d-origin="0.5 : 0.33333333 : 1"
       inkscape:vp_z="1 : 0.5 : 1"
       inkscape:vp_y="0 : 1000 : 0"
       inkscape:vp_x="0 : 0.5 : 1"
       sodipodi:type="inkscape:persp3d" />
    <inkscape:perspective
       id="perspective3771"
       inkscape:persp3d-origin="0.5 : 0.33333333 : 1"
       inkscape:vp_z="1 : 0.5 : 1"
       inkscape:vp_y="0 : 1000 : 0"
       inkscape:vp_x="0 : 0.5 : 1"
       sodipodi:type="inkscape:persp3d" />
    <inkscape:perspective
       id="perspective3809"
       inkscape:persp3d-origin="0.5 : 0.33333333 : 1"
       inkscape:vp_z="1 : 0.5 : 1"
       inkscape:vp_y="0 : 1000 : 0"
       inkscape:vp_x="0 : 0.5 : 1"
       sodipodi:type="inkscape:persp3d" />
    <inkscape:perspective
       id="perspective3860"
       inkscape:persp3d-origin="0.5 : 0.33333333 : 1"
       inkscape:vp_z="1 : 0.5 : 1"
       inkscape:vp_y="0 : 1000 : 0"
       inkscape:vp_x="0 : 0.5 : 1"
       sodipodi:type="inkscape:persp3d" />
    <inkscape:perspective
       id="perspective3894"
       inkscape:persp3d-origin="0.5 : 0.33333333 : 1"
       inkscape:vp_z="1 : 0.5 : 1"
       inkscape:vp_y="0 : 1000 : 0"
       inkscape:vp_x="0 : 0.5 : 1"
       sodipodi:type="inkscape:persp3d" />
    <inkscape:perspective
       id="perspective4049"
       inkscape:persp3d-origin="0.5 : 0.33333333 : 1"
       inkscape:vp_z="1 : 0.5 : 1"
       inkscape:vp_y="0 : 1000 : 0"
       inkscape:vp_x="0 : 0.5 : 1"
       sodipodi:type="inkscape:persp3d" />
    <inkscape:perspective
       id="perspective4136"
       inkscape:persp3d-origin="0.5 : 0.33333333 : 1"
       inkscape:vp_z="1 : 0.5 : 1"
       inkscape:vp_y="0 : 1000 : 0"
       inkscape:vp_x="0 : 0.5 : 1"
       sodipodi:type="inkscape:persp3d" />
    <inkscape:perspective
       id="perspective4164"
       inkscape:persp3d-origin="0.5 : 0.33333333 : 1"
       inkscape:vp_z="1 : 0.5 : 1"
       inkscape:vp_y="0 : 1000 : 0"
       inkscape:vp_x="0 : 0.5 : 1"
       sodipodi:type="inkscape:persp3d" />
    <inkscape:perspective
       id="perspective4218"
       inkscape:persp3d-origin="0.5 : 0.33333333 : 1"
       inkscape:vp_z="1 : 0.5 : 1"
       inkscape:vp_y="0 : 1000 : 0"
       inkscape:vp_x="0 : 0.5 : 1"
       sodipodi:type="inkscape:persp3d" />
    <linearGradient
       inkscape:collect="always"
       xlink:href="#linearGradient4293"
       id="linearGradient4299"
       x1="-24.780411"
       y1="952.07831"
       x2="-24.780411"
       y2="964.60394"
       gradientUnits="userSpaceOnUse" />
    <radialGradient
       inkscape:collect="always"
       xlink:href="#linearGradient4301"
       id="radialGradient4307"
       cx="-12.274329"
       cy="956.11053"
       fx="-12.274329"
       fy="956.11053"
       r="14.968102"
       gradientTransform="matrix(1,0,0,0.60503283,0,377.63227)"
       gradientUnits="userSpaceOnUse" />
    <inkscape:perspective
       id="perspective4323"
       inkscape:persp3d-origin="0.5 : 0.33333333 : 1"
       inkscape:vp_z="1 : 0.5 : 1"
       inkscape:vp_y="0 : 1000 : 0"
       inkscape:vp_x="0 : 0.5 : 1"
       sodipodi:type="inkscape:persp3d" />
    <radialGradient
       inkscape:collect="always"
       xlink:href="#linearGradient4301-3"
       id="radialGradient4307-8"
       cx="-12.274329"
       cy="956.11053"
       fx="-12.274329"
       fy="956.11053"
       r="14.968102"
       gradientTransform="matrix(1,0,0,0.60503283,0,377.63227)"
       gradientUnits="userSpaceOnUse" />
    <linearGradient
       id="linearGradient4301-3">
      <stop
         style="stop-color:#726c4c;stop-opacity:1;"
         offset="0"
         id="stop4303-5" />
      <stop
         style="stop-color:#cac6b0;stop-opacity:1;"
         offset="1"
         id="stop4305-2" />
    </linearGradient>
    <linearGradient
       inkscape:collect="always"
       xlink:href="#linearGradient4293-6"
       id="linearGradient4299-2"
       x1="-24.780411"
       y1="952.07831"
       x2="-24.780411"
       y2="964.60394"
       gradientUnits="userSpaceOnUse" />
    <linearGradient
       id="linearGradient4293-6">
      <stop
         style="stop-color:#0e0072;stop-opacity:1;"
         offset="0"
         id="stop4295-6" />
      <stop
         style="stop-color:#020011;stop-opacity:1;"
         offset="1"
         id="stop4297-7" />
    </linearGradient>
    <linearGradient
       inkscape:collect="always"
       xlink:href="#linearGradient4293-6"
       id="linearGradient4376"
       gradientUnits="userSpaceOnUse"
       x1="-24.780411"
       y1="952.07831"
       x2="-24.780411"
       y2="964.60394"
       gradientTransform="translate(-5.7810267,-21.870729)" />
    <radialGradient
       inkscape:collect="always"
       xlink:href="#linearGradient4301-3"
       id="radialGradient4379"
       gradientUnits="userSpaceOnUse"
       gradientTransform="matrix(1,0,0,0.60503283,-5.7810267,-648.60066)"
       cx="-12.274329"
       cy="956.11053"
       fx="-12.274329"
       fy="956.11053"
       r="14.968102" />
    <inkscape:perspective
       id="perspective4390"
       inkscape:persp3d-origin="0.5 : 0.33333333 : 1"
       inkscape:vp_z="1 : 0.5 : 1"
       inkscape:vp_y="0 : 1000 : 0"
       inkscape:vp_x="0 : 0.5 : 1"
       sodipodi:type="inkscape:persp3d" />
    <inkscape:perspective
       id="perspective3073"
       inkscape:persp3d-origin="0.5 : 0.33333333 : 1"
       inkscape:vp_z="1 : 0.5 : 1"
       inkscape:vp_y="0 : 1000 : 0"
       inkscape:vp_x="0 : 0.5 : 1"
       sodipodi:type="inkscape:persp3d" />
    <inkscape:perspective
       id="perspective3095"
       inkscape:persp3d-origin="0.5 : 0.33333333 : 1"
       inkscape:vp_z="1 : 0.5 : 1"
       inkscape:vp_y="0 : 1000 : 0"
       inkscape:vp_x="0 : 0.5 : 1"
       sodipodi:type="inkscape:persp3d" />
    <inkscape:perspective
       id="perspective3894-0"
       inkscape:persp3d-origin="0.5 : 0.33333333 : 1"
       inkscape:vp_z="1 : 0.5 : 1"
       inkscape:vp_y="0 : 1000 : 0"
       inkscape:vp_x="0 : 0.5 : 1"
       sodipodi:type="inkscape:persp3d" />
    <inkscape:perspective
       id="perspective3916"
       inkscape:persp3d-origin="0.5 : 0.33333333 : 1"
       inkscape:vp_z="1 : 0.5 : 1"
       inkscape:vp_y="0 : 1000 : 0"
       inkscape:vp_x="0 : 0.5 : 1"
       sodipodi:type="inkscape:persp3d" />
    <radialGradient
       inkscape:collect="always"
       xlink:href="#linearGradient3935"
       id="radialGradient3941"
       cx="14.641243"
       cy="1016.3128"
       fx="14.641243"
       fy="1016.3128"
       r="10"
       gradientUnits="userSpaceOnUse"
       gradientTransform="translate(-12,27)" />
    <inkscape:perspective
       id="perspective3065"
       inkscape:persp3d-origin="0.5 : 0.33333333 : 1"
       inkscape:vp_z="1 : 0.5 : 1"
       inkscape:vp_y="0 : 1000 : 0"
       inkscape:vp_x="0 : 0.5 : 1"
       sodipodi:type="inkscape:persp3d" />
    <radialGradient
       inkscape:collect="always"
       xlink:href="#linearGradient3935-9"
       id="radialGradient3941-7"
       cx="14.641243"
       cy="1016.3128"
       fx="14.641243"
       fy="1016.3128"
       r="10"
       gradientUnits="userSpaceOnUse"
       gradientTransform="translate(-11,27)" />
    <linearGradient
       id="linearGradient3935-9">
      <stop
         style="stop-color:#43a041;stop-opacity:1;"
         offset="0"
         id="stop3937-3" />
      <stop
         style="stop-color:#1e491d;stop-opacity:1;"
         offset="1"
         id="stop3939-8" />
    </linearGradient>
    <inkscape:perspective
       id="perspective3103"
       inkscape:persp3d-origin="0.5 : 0.33333333 : 1"
       inkscape:vp_z="1 : 0.5 : 1"
       inkscape:vp_y="0 : 1000 : 0"
       inkscape:vp_x="0 : 0.5 : 1"
       sodipodi:type="inkscape:persp3d" />
    <inkscape:perspective
       id="perspective3094"
       inkscape:persp3d-origin="0.5 : 0.33333333 : 1"
       inkscape:vp_z="1 : 0.5 : 1"
       inkscape:vp_y="0 : 1000 : 0"
       inkscape:vp_x="0 : 0.5 : 1"
       sodipodi:type="inkscape:persp3d" />
    <radialGradient
       inkscape:collect="always"
       xlink:href="#linearGradient3935-3"
       id="radialGradient3941-79"
       cx="14.641243"
       cy="1016.3128"
       fx="14.641243"
       fy="1016.3128"
       r="10"
       gradientUnits="userSpaceOnUse"
       gradientTransform="translate(-11,27)" />
    <linearGradient
       id="linearGradient3935-3">
      <stop
         style="stop-color:#702d2d;stop-opacity:1;"
         offset="0"
         id="stop3937-8" />
      <stop
         style="stop-color:#f21f1f;stop-opacity:1;"
         offset="1"
         id="stop3939-0" />
    </linearGradient>
    <radialGradient
       r="10"
       fy="1016.3128"
       fx="14.641243"
       cy="1016.3128"
       cx="14.641243"
       gradientTransform="translate(-23,28)"
       gradientUnits="userSpaceOnUse"
       id="radialGradient3103"
       xlink:href="#linearGradient3935-3"
       inkscape:collect="always" />
    <radialGradient
       inkscape:collect="always"
       xlink:href="#linearGradient3935-3"
       id="radialGradient3897"
       gradientUnits="userSpaceOnUse"
       gradientTransform="translate(-23,28)"
       cx="28.5"
       cy="1013.8622"
       fx="28.5"
       fy="1013.8622"
       r="10" />
    <inkscape:perspective
       id="perspective3907"
       inkscape:persp3d-origin="0.5 : 0.33333333 : 1"
       inkscape:vp_z="1 : 0.5 : 1"
       inkscape:vp_y="0 : 1000 : 0"
       inkscape:vp_x="0 : 0.5 : 1"
       sodipodi:type="inkscape:persp3d" />
    <radialGradient
       inkscape:collect="always"
       xlink:href="#linearGradient3935-3-8"
       id="radialGradient3897-4"
       gradientUnits="userSpaceOnUse"
       gradientTransform="translate(-23,28)"
       cx="28.5"
       cy="1013.8622"
       fx="28.5"
       fy="1013.8622"
       r="10" />
    <linearGradient
       id="linearGradient3935-3-8">
      <stop
         style="stop-color:#a09641;stop-opacity:1;"
         offset="0"
         id="stop3937-8-3" />
      <stop
         style="stop-color:#f0f338;stop-opacity:1;"
         offset="1"
         id="stop3939-0-9" />
    </linearGradient>
    <inkscape:perspective
       id="perspective3945"
       inkscape:persp3d-origin="0.5 : 0.33333333 : 1"
       inkscape:vp_z="1 : 0.5 : 1"
       inkscape:vp_y="0 : 1000 : 0"
       inkscape:vp_x="0 : 0.5 : 1"
       sodipodi:type="inkscape:persp3d" />
    <radialGradient
       inkscape:collect="always"
       xlink:href="#linearGradient3935-3"
       id="radialGradient3094"
       gradientUnits="userSpaceOnUse"
       gradientTransform="translate(-23,28)"
       cx="28.5"
       cy="1013.8622"
       fx="28.5"
       fy="1013.8622"
       r="10" />
    <inkscape:perspective
       id="perspective3900"
       inkscape:persp3d-origin="0.5 : 0.33333333 : 1"
       inkscape:vp_z="1 : 0.5 : 1"
       inkscape:vp_y="0 : 1000 : 0"
       inkscape:vp_x="0 : 0.5 : 1"
       sodipodi:type="inkscape:persp3d" />
    <inkscape:perspective
       id="perspective3900-9"
       inkscape:persp3d-origin="0.5 : 0.33333333 : 1"
       inkscape:vp_z="1 : 0.5 : 1"
       inkscape:vp_y="0 : 1000 : 0"
       inkscape:vp_x="0 : 0.5 : 1"
       sodipodi:type="inkscape:persp3d" />
    <inkscape:perspective
       id="perspective3900-8"
       inkscape:persp3d-origin="0.5 : 0.33333333 : 1"
       inkscape:vp_z="1 : 0.5 : 1"
       inkscape:vp_y="0 : 1000 : 0"
       inkscape:vp_x="0 : 0.5 : 1"
       sodipodi:type="inkscape:persp3d" />
    <inkscape:perspective
       id="perspective3941"
       inkscape:persp3d-origin="0.5 : 0.33333333 : 1"
       inkscape:vp_z="1 : 0.5 : 1"
       inkscape:vp_y="0 : 1000 : 0"
       inkscape:vp_x="0 : 0.5 : 1"
       sodipodi:type="inkscape:persp3d" />
    <radialGradient
       inkscape:collect="always"
       xlink:href="#linearGradient3876-4"
       id="radialGradient3882-2"
       cx="-9.5"
       cy="-2.9948714"
       fx="-9.5"
       fy="-2.9948714"
       r="7.2409058"
       gradientTransform="matrix(1,0,0,0.93094787,0,-0.06905213)"
       gradientUnits="userSpaceOnUse" />
    <linearGradient
       id="linearGradient3876-4">
      <stop
         style="stop-color:#9ebdff;stop-opacity:1;"
         offset="0"
         id="stop3878-8" />
      <stop
         style="stop-color:#0042d1;stop-opacity:1;"
         offset="1"
         id="stop3880-3" />
    </linearGradient>
    <inkscape:perspective
       id="perspective4013"
       inkscape:persp3d-origin="0.5 : 0.33333333 : 1"
       inkscape:vp_z="1 : 0.5 : 1"
       inkscape:vp_y="0 : 1000 : 0"
       inkscape:vp_x="0 : 0.5 : 1"
       sodipodi:type="inkscape:persp3d" />
    <inkscape:perspective
       id="perspective4041"
       inkscape:persp3d-origin="0.5 : 0.33333333 : 1"
       inkscape:vp_z="1 : 0.5 : 1"
       inkscape:vp_y="0 : 1000 : 0"
       inkscape:vp_x="0 : 0.5 : 1"
       sodipodi:type="inkscape:persp3d" />
    <radialGradient
       inkscape:collect="always"
       xlink:href="#linearGradient3876"
       id="radialGradient4068"
       gradientUnits="userSpaceOnUse"
       gradientTransform="matrix(-1.1612568,0.59343628,-0.71536461,-1.2058356,-26.73798,-3.0368198)"
       cx="-11.442745"
       cy="-4.4871912"
       fx="-11.442745"
       fy="-4.4871912"
       r="7.2409058" />
    <inkscape:perspective
       id="perspective2977"
       inkscape:persp3d-origin="0.5 : 0.33333333 : 1"
       inkscape:vp_z="1 : 0.5 : 1"
       inkscape:vp_y="0 : 1000 : 0"
       inkscape:vp_x="0 : 0.5 : 1"
       sodipodi:type="inkscape:persp3d" />
    <inkscape:perspective
       id="perspective2977-9"
       inkscape:persp3d-origin="0.5 : 0.33333333 : 1"
       inkscape:vp_z="1 : 0.5 : 1"
       inkscape:vp_y="0 : 1000 : 0"
       inkscape:vp_x="0 : 0.5 : 1"
       sodipodi:type="inkscape:persp3d" />
    <inkscape:perspective
       id="perspective3780"
       inkscape:persp3d-origin="0.5 : 0.33333333 : 1"
       inkscape:vp_z="1 : 0.5 : 1"
       inkscape:vp_y="0 : 1000 : 0"
       inkscape:vp_x="0 : 0.5 : 1"
       sodipodi:type="inkscape:persp3d" />
    <inkscape:perspective
       id="perspective3801"
       inkscape:persp3d-origin="0.5 : 0.33333333 : 1"
       inkscape:vp_z="1 : 0.5 : 1"
       inkscape:vp_y="0 : 1000 : 0"
       inkscape:vp_x="0 : 0.5 : 1"
       sodipodi:type="inkscape:persp3d" />
    <inkscape:perspective
       id="perspective3801-4"
       inkscape:persp3d-origin="0.5 : 0.33333333 : 1"
       inkscape:vp_z="1 : 0.5 : 1"
       inkscape:vp_y="0 : 1000 : 0"
       inkscape:vp_x="0 : 0.5 : 1"
       sodipodi:type="inkscape:persp3d" />
    <inkscape:perspective
       id="perspective3801-3"
       inkscape:persp3d-origin="0.5 : 0.33333333 : 1"
       inkscape:vp_z="1 : 0.5 : 1"
       inkscape:vp_y="0 : 1000 : 0"
       inkscape:vp_x="0 : 0.5 : 1"
       sodipodi:type="inkscape:persp3d" />
    <linearGradient
       inkscape:collect="always"
       xlink:href="#linearGradient3743"
       id="linearGradient3751"
       x1="9.5782938"
       y1="1048.663"
       x2="10.731417"
       y2="1050.3569"
       gradientUnits="userSpaceOnUse" />
    <inkscape:perspective
       id="perspective3761"
       inkscape:persp3d-origin="0.5 : 0.33333333 : 1"
       inkscape:vp_z="1 : 0.5 : 1"
       inkscape:vp_y="0 : 1000 : 0"
       inkscape:vp_x="0 : 0.5 : 1"
       sodipodi:type="inkscape:persp3d" />
    <linearGradient
       id="linearGradient3743-9">
      <stop
         style="stop-color:#ffffff;stop-opacity:1;"
         offset="0"
         id="stop3745-3" />
      <stop
         style="stop-color:#aeaeae;stop-opacity:1;"
         offset="1"
         id="stop3747-8" />
    </linearGradient>
    <linearGradient
       gradientTransform="translate(-7.0993455,-1046.969)"
       y2="1050.3569"
       x2="10.731417"
       y1="1048.663"
       x1="9.5782938"
       gradientUnits="userSpaceOnUse"
       id="linearGradient3770"
       xlink:href="#linearGradient3743-9"
       inkscape:collect="always" />
    <linearGradient
       inkscape:collect="always"
       xlink:href="#linearGradient3743-9"
       id="linearGradient3792"
       x1="11.974181"
       y1="1041.9314"
       x2="15.582935"
       y2="1041.9313"
       gradientUnits="userSpaceOnUse" />
    <inkscape:perspective
       id="perspective3802"
       inkscape:persp3d-origin="0.5 : 0.33333333 : 1"
       inkscape:vp_z="1 : 0.5 : 1"
       inkscape:vp_y="0 : 1000 : 0"
       inkscape:vp_x="0 : 0.5 : 1"
       sodipodi:type="inkscape:persp3d" />
    <linearGradient
       inkscape:collect="always"
       xlink:href="#linearGradient3743-4"
       id="linearGradient3751-2"
       x1="2.7967789"
       y1="1046.2505"
       x2="2.7967789"
       y2="1048.9427"
       gradientUnits="userSpaceOnUse" />
    <linearGradient
       id="linearGradient3743-4">
      <stop
         style="stop-color:#ffffff;stop-opacity:1;"
         offset="0"
         id="stop3745-8" />
      <stop
         style="stop-color:#aeaeae;stop-opacity:1;"
         offset="1"
         id="stop3747-3" />
    </linearGradient>
    <linearGradient
       gradientTransform="translate(-7.0993455,-1046.969)"
       y2="1050.3569"
       x2="10.731417"
       y1="1048.663"
       x1="9.5782938"
       gradientUnits="userSpaceOnUse"
       id="linearGradient3811"
       xlink:href="#linearGradient3743-4"
       inkscape:collect="always" />
    <radialGradient
       inkscape:collect="always"
       xlink:href="#linearGradient3876"
       id="radialGradient3863"
       gradientUnits="userSpaceOnUse"
       gradientTransform="matrix(-1.1612568,0.59343628,-0.71536461,-1.2058356,-26.73798,-3.0368198)"
       cx="-11.442745"
       cy="-4.4871912"
       fx="-11.442745"
       fy="-4.4871912"
       r="7.2409058" />
    <linearGradient
       inkscape:collect="always"
       xlink:href="#linearGradient3743-9"
       id="linearGradient3865"
       gradientUnits="userSpaceOnUse"
       x1="11.974181"
       y1="1041.9314"
       x2="15.582935"
       y2="1041.9313" />
    <linearGradient
       inkscape:collect="always"
       xlink:href="#linearGradient3743-4"
       id="linearGradient3867"
       gradientUnits="userSpaceOnUse"
       x1="2.7967789"
       y1="1046.2505"
       x2="2.7967789"
       y2="1048.9427" />
    <linearGradient
       inkscape:collect="always"
       xlink:href="#linearGradient3743"
       id="linearGradient3869"
       gradientUnits="userSpaceOnUse"
       x1="9.5782938"
       y1="1048.663"
       x2="10.731417"
       y2="1050.3569" />
    <linearGradient
       inkscape:collect="always"
       xlink:href="#linearGradient3743"
       id="linearGradient3873"
       gradientUnits="userSpaceOnUse"
       x1="9.5782938"
       y1="1048.663"
       x2="10.731417"
       y2="1050.3569"
       gradientTransform="matrix(2.0333032,0,0,2.0322662,-0.26665138,-1086.0518)" />
    <linearGradient
       inkscape:collect="always"
       xlink:href="#linearGradient3743-4"
       id="linearGradient3878"
       gradientUnits="userSpaceOnUse"
       x1="2.7967789"
       y1="1046.2505"
       x2="2.7967789"
       y2="1048.9427"
       gradientTransform="matrix(2.0333032,0,0,2.0322662,-0.90209777,-1086.8461)" />
    <linearGradient
       inkscape:collect="always"
       xlink:href="#linearGradient3743-9"
       id="linearGradient3882"
       gradientUnits="userSpaceOnUse"
       x1="11.974181"
       y1="1041.9314"
       x2="15.582935"
       y2="1041.9313"
       gradientTransform="matrix(2.0333032,0,0,2.0322662,-0.26665138,-1086.0518)" />
    <radialGradient
       inkscape:collect="always"
       xlink:href="#linearGradient3876"
       id="radialGradient6660"
       gradientUnits="userSpaceOnUse"
       gradientTransform="matrix(-1.1612568,0.59343628,-0.71536461,-1.2058356,-26.73798,-3.0368198)"
       cx="-11.442745"
       cy="-4.4871912"
       fx="-11.442745"
       fy="-4.4871912"
       r="7.2409058" />
    <linearGradient
       inkscape:collect="always"
       xlink:href="#linearGradient3743-9"
       id="linearGradient6662"
       gradientUnits="userSpaceOnUse"
       gradientTransform="matrix(2.0333032,0,0,2.0322662,-0.26665138,-1086.0518)"
       x1="11.974181"
       y1="1041.9314"
       x2="15.582935"
       y2="1041.9313" />
    <linearGradient
       inkscape:collect="always"
       xlink:href="#linearGradient3743-4"
       id="linearGradient6664"
       gradientUnits="userSpaceOnUse"
       gradientTransform="matrix(2.0333032,0,0,2.0322662,-0.90209777,-1086.8461)"
       x1="2.7967789"
       y1="1046.2505"
       x2="2.7967789"
       y2="1048.9427" />
    <linearGradient
       inkscape:collect="always"
       xlink:href="#linearGradient3743"
       id="linearGradient6666"
       gradientUnits="userSpaceOnUse"
       gradientTransform="matrix(2.0333032,0,0,2.0322662,-0.26665138,-1086.0518)"
       x1="9.5782938"
       y1="1048.663"
       x2="10.731417"
       y2="1050.3569" />
    <inkscape:perspective
       id="perspective6676"
       inkscape:persp3d-origin="0.5 : 0.33333333 : 1"
       inkscape:vp_z="1 : 0.5 : 1"
       inkscape:vp_y="0 : 1000 : 0"
       inkscape:vp_x="0 : 0.5 : 1"
       sodipodi:type="inkscape:persp3d" />
    <radialGradient
       inkscape:collect="always"
       xlink:href="#linearGradient3876-5"
       id="radialGradient6660-2"
       gradientUnits="userSpaceOnUse"
       gradientTransform="matrix(-1.1612568,0.59343628,-0.71536461,-1.2058356,-26.73798,-3.0368198)"
       cx="-11.442745"
       cy="-4.4871912"
       fx="-11.442745"
       fy="-4.4871912"
       r="7.2409058" />
    <linearGradient
       id="linearGradient3876-5">
      <stop
         style="stop-color:#f0f3f8;stop-opacity:1;"
         offset="0"
         id="stop3878-86" />
      <stop
         id="stop3727-1"
         offset="0.43954355"
         style="stop-color:#456697;stop-opacity:1;" />
      <stop
         style="stop-color:#324b6f;stop-opacity:1;"
         offset="0.86409569"
         id="stop3729-4" />
      <stop
         style="stop-color:#1f3047;stop-opacity:1;"
         offset="1"
         id="stop3880-7" />
    </linearGradient>
    <linearGradient
       inkscape:collect="always"
       xlink:href="#linearGradient3743-9-0"
       id="linearGradient6662-8"
       gradientUnits="userSpaceOnUse"
       gradientTransform="matrix(2.0333032,0,0,2.0322662,-0.26665138,-1086.0518)"
       x1="11.974181"
       y1="1041.9314"
       x2="15.582935"
       y2="1041.9313" />
    <linearGradient
       id="linearGradient3743-9-0">
      <stop
         style="stop-color:#ffffff;stop-opacity:1;"
         offset="0"
         id="stop3745-3-2" />
      <stop
         style="stop-color:#aeaeae;stop-opacity:1;"
         offset="1"
         id="stop3747-8-7" />
    </linearGradient>
    <linearGradient
       inkscape:collect="always"
       xlink:href="#linearGradient3743-4-1"
       id="linearGradient6664-5"
       gradientUnits="userSpaceOnUse"
       gradientTransform="matrix(2.0333032,0,0,2.0322662,-0.90209777,-1086.8461)"
       x1="2.7967789"
       y1="1046.2505"
       x2="2.7967789"
       y2="1048.9427" />
    <linearGradient
       id="linearGradient3743-4-1">
      <stop
         style="stop-color:#ffffff;stop-opacity:1;"
         offset="0"
         id="stop3745-8-6" />
      <stop
         style="stop-color:#aeaeae;stop-opacity:1;"
         offset="1"
         id="stop3747-3-4" />
    </linearGradient>
    <linearGradient
       inkscape:collect="always"
       xlink:href="#linearGradient3743-5"
       id="linearGradient6666-0"
       gradientUnits="userSpaceOnUse"
       gradientTransform="matrix(2.0333032,0,0,2.0322662,-0.26665138,-1086.0518)"
       x1="9.5782938"
       y1="1048.663"
       x2="10.731417"
       y2="1050.3569" />
    <linearGradient
       id="linearGradient3743-5">
      <stop
         style="stop-color:#ffffff;stop-opacity:1;"
         offset="0"
         id="stop3745-89" />
      <stop
         style="stop-color:#aeaeae;stop-opacity:1;"
         offset="1"
         id="stop3747-2" />
    </linearGradient>
    <linearGradient
       inkscape:collect="always"
       xlink:href="#linearGradient3743-5"
       id="linearGradient6773"
       gradientUnits="userSpaceOnUse"
       gradientTransform="matrix(1.9604767,0,0,1.9594768,-34.252192,-1011.0963)"
       x1="9.5782938"
       y1="1048.663"
       x2="10.731417"
       y2="1050.3569" />
    <linearGradient
       inkscape:collect="always"
       xlink:href="#linearGradient3743-4-1"
       id="linearGradient6778"
       gradientUnits="userSpaceOnUse"
       gradientTransform="matrix(1.9604767,0,0,1.9594768,-34.864878,-1011.8622)"
       x1="2.7967789"
       y1="1046.2505"
       x2="2.7967789"
       y2="1048.9427" />
    <linearGradient
       inkscape:collect="always"
       xlink:href="#linearGradient3743-9-0"
       id="linearGradient6782"
       gradientUnits="userSpaceOnUse"
       gradientTransform="matrix(1.9604767,0,0,1.9594768,-34.252192,-1011.0963)"
       x1="11.974181"
       y1="1041.9314"
       x2="15.582935"
       y2="1041.9313" />
    <filter
       inkscape:collect="always"
       id="filter7296">
      <feGaussianBlur
         inkscape:collect="always"
         stdDeviation="0.5396295"
         id="feGaussianBlur7298" />
    </filter>
  </defs>
  <sodipodi:namedview
     id="base"
     pagecolor="#f3f3f3"
     bordercolor="#666666"
     borderopacity="1.0"
     inkscape:pageopacity="0"
     inkscape:pageshadow="2"
     inkscape:zoom="12.589575"
     inkscape:cx="9.9229991"
     inkscape:cy="14.444286"
     inkscape:document-units="px"
     inkscape:current-layer="layer1"
     showgrid="true"
     inkscape:window-width="1327"
     inkscape:window-height="1043"
     inkscape:window-x="456"
     inkscape:window-y="38"
     inkscape:window-maximized="0"
     showguides="true"
     inkscape:guide-bbox="true">
    <inkscape:grid
       type="xygrid"
       id="grid2816"
       empspacing="5"
       visible="true"
       enabled="false"
       snapvisiblegridlinesonly="true"
       originx="0.5px"
       originy="0.5px" />
  </sodipodi:namedview>
  <metadata
     id="metadata7">
    <rdf:RDF>
      <cc:Work
         rdf:about="">
        <dc:format>image/svg+xml</dc:format>
        <dc:type
           rdf:resource="http://purl.org/dc/dcmitype/StillImage" />
        <dc:title />
      </cc:Work>
    </rdf:RDF>
  </metadata>
  <g
     inkscape:label="Ebene 1"
     inkscape:groupmode="layer"
     id="layer1"
     transform="translate(0,-1020.3622)">
    <path
       sodipodi:type="arc"
       style="opacity:0.3;color:#000000;fill:#000000;fill-opacity:1;stroke:none;stroke-width:0.22937518;marker:none;visibility:visible;display:inline;overflow:visible;filter:url(#filter7296);enable-background:accumulate"
       id="path3102-9-1"
       sodipodi:cx="-7.5"
       sodipodi:cy="-1"
       sodipodi:rx="7"
       sodipodi:ry="6.5"
       d="m -0.5,-1 a 7,6.5 0 1 1 -14,0 7,6.5 0 1 1 14,0 z"
       transform="matrix(2.1005327,0,0,2.2621311,32.214754,1039.6266)" />
    <g
       id="g6641"
       transform="matrix(0.96418314,0,0,0.96418314,-0.22209712,36.324351)">
      <path
         transform="matrix(2.178562,0,0,2.3461633,32.339149,1038.7083)"
         d="m -0.5,-1 c 0,3.5898509 -3.1340068,6.5 -7,6.5 -3.865993,0 -7,-2.9101491 -7,-6.5 0,-3.5898509 3.134007,-6.5 7,-6.5 3.8659932,0 7,2.9101491 7,6.5 z"
         sodipodi:ry="6.5"
         sodipodi:rx="7"
         sodipodi:cy="-1"
         sodipodi:cx="-7.5"
         id="path3102"
         style="color:#000000;fill:url(#radialGradient6660);fill-opacity:1;fill-rule:nonzero;stroke:#000000;stroke-width:0.22937518;stroke-miterlimit:4;stroke-opacity:1;stroke-dasharray:none;marker:none;visibility:visible;display:inline;overflow:visible;enable-background:accumulate"
         sodipodi:type="arc" />
      <path
         id="path3923"
         d="m 5.4236566,1026.7225 c 0.9183292,0 -0.094963,-0.055 0.6018951,0.1199 0.077863,0.022 0.1604907,0 0.2407572,0 0.040129,0 0.084488,-0.022 0.1203857,0 0.050759,0.026 0.069622,0.096 0.1203879,0.1199 0.00632,0 0.3548398,0 0.361136,0 0.050759,-0.026 0.069622,-0.095 0.1203878,-0.1199 0.035884,-0.022 0.084482,0.022 0.1203878,0 0.050761,-0.026 0.069622,-0.095 0.1203858,-0.1199 0.035884,-0.022 0.084486,0.022 0.1203878,0 0.050759,-0.026 0.080256,-0.081 0.1203858,-0.1199 0.040131,-0.039 0.09501,-0.069 0.1203878,-0.1199 0.035884,-0.073 -0.056754,-0.1849 0,-0.2408 0.028367,-0.028 0.091997,0.028 0.1203878,0 0.032307,-0.033 -0.028255,-0.3969 0,-0.4817 0.029324,-0.087 0.1305604,-0.306 0.2407575,-0.3609 0.035884,-0.022 0.091999,0.028 0.1203858,0 0.028365,-0.029 -0.028365,-0.091 0,-0.1199 0.028365,-0.029 0.084488,0.022 0.1203878,0 0.050759,-0.026 0.069622,-0.096 0.1203858,-0.1199 0.035884,-0.022 0.091999,0.028 0.1203878,0 0.028365,-0.028 -0.028365,-0.089 0,-0.1199 0.028365,-0.029 0.084486,0.022 0.1203858,0 0.050759,-0.026 0.069622,-0.096 0.1203878,-0.1199 0.07178,-0.035 0.1689675,0.035 0.240757,0 0.050761,-0.026 0.066552,-0.1016 0.1203878,-0.1199 0.076137,-0.026 0.1604906,0 0.2407593,0 0.040129,0 0.084486,0.022 0.1203879,0 0.050761,-0.026 0.069622,-0.095 0.1203857,-0.1199 0.036642,-0.022 0.3069245,0 0.3611385,0 0.08836,0 0.6803064,0.022 0.7222734,0 0.05076,-0.024 0.08026,-0.081 0.120386,-0.1199 0.04013,-0.041 0.08026,-0.081 0.120388,-0.1199 0.200516,-0.2012 0.494588,-0.4719 0.601895,-0.7221 0.04743,-0.1097 -0.03806,-0.2469 0,-0.3613 0.01265,-0.039 0.08449,0.022 0.120386,0 0.550928,-0.2754 -0.51082,0.049 0.361136,-0.2407 0.06793,-0.022 0.282037,0 0.361138,0 0.280885,0 0.561768,0 0.842653,0 0.0286,0 0.454537,0.022 0.481516,0 0.05076,-0.026 0.06962,-0.097 0.120388,-0.1199 0.07178,-0.035 0.16897,0.037 0.24076,0 0.02305,-0.022 0.469994,-0.4582 0.481516,-0.4814 0.01783,-0.037 0,-0.081 0,-0.1199 0,-0.081 -0.0194,-0.1626 0,-0.2408 0.02179,-0.087 0.092,-0.1565 0.120386,-0.2406 0.01265,-0.037 -0.01783,-0.085 0,-0.12 0.02538,-0.049 0.09501,-0.069 0.120388,-0.1199 0.03588,-0.073 -0.05675,-0.1829 0,-0.2408 0.02837,-0.028 0.102438,0.037 0.120386,0 0.05383,-0.1057 0,-0.2408 0,-0.3611 0,-0.039 0,-0.081 0,-0.1199 0,-0.041 0.02836,-0.092 0,-0.1199 -0.0039,0 -0.331941,0 -0.361136,0 -0.481517,0 -0.963034,0 -1.44455,0 -0.04013,0 -0.08026,0 -0.120388,0 -0.04013,0 -0.08448,-0.022 -0.120387,0 -0.05076,0.026 -0.06962,0.097 -0.120386,0.1199 -0.03588,0.022 -0.08449,-0.022 -0.120388,0 -0.05076,0.026 -0.06962,0.095 -0.120386,0.1199 -0.03588,0.022 -0.08449,-0.022 -0.120388,0 -0.10152,0.049 -0.139259,0.189 -0.240759,0.2406 -0.07178,0.037 -0.184002,-0.057 -0.240757,0 -0.02836,0.028 0.02837,0.093 0,0.1199 -0.02836,0.029 -0.08448,-0.022 -0.120386,0 -0.05076,0.026 -0.06962,0.096 -0.120388,0.1199 -0.07178,0.035 -0.184002,-0.057 -0.240759,0 -0.02837,0.029 0.03588,0.1016 0,0.1199 -0.07178,0.037 -0.16897,-0.034 -0.240758,0 -0.03588,0.022 0.02836,0.089 0,0.1199 -0.02836,0.029 -0.08448,-0.022 -0.120385,0 -0.05076,0.026 -0.06962,0.098 -0.120388,0.1199 -0.03588,0.022 -0.08449,-0.022 -0.120386,0 -0.05076,0.026 -0.06962,0.098 -0.120388,0.1199 -0.03588,0.022 -0.08449,-0.022 -0.120386,0 -0.05076,0.026 -0.06962,0.096 -0.120387,0.1199 -0.03588,0.022 -0.092,-0.028 -0.120388,0 -0.02837,0.029 0.02837,0.091 0,0.1199 -0.02837,0.029 -0.092,-0.028 -0.120388,0 -0.02837,0.029 0,0.081 0,0.1199 -0.08026,0.039 -0.1556374,0.094 -0.2407574,0.1199 -0.03806,0.022 -0.092,-0.028 -0.1203881,0 -0.028365,0.029 0.028365,0.091 0,0.1199 -0.056754,0.057 -0.1689695,-0.037 -0.2407573,0 -0.050759,0.026 -0.069622,0.096 -0.1203878,0.12 -0.076926,0.039 -0.3846225,-0.033 -0.4815163,0 -0.8719567,0.2906 0.1897946,-0.035 -0.3611382,0.2408 -0.047736,0.024 -0.3365266,-0.024 -0.3611356,0 -0.028365,0.028 0.028367,0.089 0,0.1199 -0.028365,0.028 -0.084486,-0.022 -0.1203878,0 -0.050759,0.026 -0.069622,0.096 -0.1203858,0.1199 -0.035884,0.022 -0.084486,-0.022 -0.1203858,0 -0.1015208,0.051 -0.1392589,0.189 -0.2407575,0.2408 -0.035884,0.022 -0.091999,-0.028 -0.1203858,0 -0.028367,0.029 0.017832,0.085 0,0.1199 -0.025382,0.049 -0.09501,0.069 -0.1203878,0.1199 -0.017832,0.037 0.017832,0.085 0,0.1199 -0.2504934,0.501 0.00826,-0.128 -0.2407576,0.1199 -0.028365,0.029 0.028365,0.089 0,0.1199 -0.028365,0.028 -0.084486,-0.022 -0.1203878,0 -0.050759,0.026 -0.069622,0.095 -0.1203858,0.1199 -0.07178,0.035 -0.1840017,-0.057 -0.2407573,0 -0.028367,0.028 0.028367,0.089 0,0.1199 -0.028367,0.027 -0.084486,-0.022 -0.1203878,0 -0.1015208,0.049 -0.1392589,0.189 -0.2407596,0.2409 -0.07178,0.034 -0.1689695,-0.037 -0.2407573,0 -0.064291,0.033 -0.2977614,0.2977 -0.3611378,0.3607 -0.06337,0.063 -0.3289891,0.2971 -0.361136,0.3613 -0.017832,0.035 0.028364,0.091 0,0.1199 -0.028367,0.028 -0.092001,-0.028 -0.1203879,0 -0.028365,0.028 0.012647,0.083 0,0.1199 -0.2906529,0.8723 0.034702,-0.189 -0.2407595,0.3612 -0.035884,0.073 0.056754,0.1829 0,0.2408 -0.028367,0.028 -0.091997,-0.029 -0.1203858,0 -0.028367,0.028 0.017832,0.085 0,0.1199 -0.025376,0.049 -0.095012,0.069 -0.1203878,0.1199 -0.017832,0.035 0.017832,0.085 0,0.1199 -0.025378,0.049 -0.09501,0.069 -0.1203878,0.1199 -0.017832,0.034 0,0.081 0,0.1199 0,0.3323 -0.018056,0.085 0.8426524,0 z"
         style="color:#000000;fill:#ffffff;fill-opacity:1;fill-rule:nonzero;stroke:none;stroke-width:1px;marker:none;visibility:visible;display:inline;overflow:visible;enable-background:accumulate" />
      <path
         id="path3741"
         d="m 19.20952,1022.4122 c -0.14044,-0.022 -0.260153,0.028 -0.340399,0.067 0,0.039 0.02836,0.039 0,0.067 -0.02839,0.029 -0.03971,-0.028 -0.06808,0 -0.06346,0.063 -0.07271,0.2091 -0.13617,0.2723 -0.02839,0.029 -0.107806,-0.028 -0.136171,0 -0.02836,0.029 0,0.096 0,0.1362 l 0,0.9531 c 0,0.057 -0.0055,0.6128 0,0.6128 0.02839,0.028 0.107806,-0.029 0.136171,0 0.02836,0.028 -0.02837,0.039 0,0.067 0.02838,0.028 0.100262,-0.022 0.13617,0 0.05075,0.024 0.02796,0.095 0.06808,0.1362 0.04012,0.039 0.110774,0.085 0.13617,0.1362 0.02157,0.043 -0.03719,0.3186 0,0.3404 0.0283,0.022 0.397478,0 0.47656,0 l 0.953121,0 0.408484,0 c 0.02839,0.028 -0.01769,0.1 0,0.1361 0.0254,0.049 0.118196,0.083 0.136171,0.1362 0.0254,0.077 -0.03589,0.1341 0,0.2048 0.01769,0.035 0.03969,-0.028 0.06808,0 0.0057,0 0,0.5563 0,0.6128 l 0,0.1361 c 0,0.039 0.02838,0.1077 0,0.1362 -0.02839,0.028 -0.02796,0 -0.06808,0 l -0.74888,0 -1.089283,0 c -0.04758,0 -0.561306,-0.026 -0.61272,0 -0.05075,0.024 -0.08233,0.045 -0.13615,0.067 -0.149509,0.049 -0.386368,-0.039 -0.544641,0 -0.08704,0.022 -0.192066,0.096 -0.27232,0.1361 -0.08025,0.039 -0.197657,0.085 -0.27232,0.1362 -0.04723,0.031 -0.01728,0.1117 -0.06808,0.1361 -0.03591,0.022 -0.107806,-0.028 -0.136171,0 -0.02836,0.029 0.02836,0.039 0,0.067 -0.02839,0.029 -0.100282,-0.022 -0.13617,0 -0.05075,0.024 -0.09603,0.098 -0.13617,0.1362 -0.04012,0.039 -0.05022,0.083 -0.06808,0.1361 -0.0207,0.061 0,0.6884 0,0.817 0,0.083 -0.02178,0.5692 0,0.6127 0.02537,0.049 0.0427,0.085 0.06808,0.1362 0.01789,0.034 0,0.095 0,0.1361 l 0,0.067 0,0.6125 0,0.1362 c 0,0.039 -0.02837,0.1077 0,0.1362 0.02838,0.028 0.107806,-0.026 0.13617,0 0.02836,0.028 -0.01789,0.1 0,0.1361 0.02538,0.049 0.110774,0.022 0.13617,0.067 0.01789,0.034 -0.0098,0.098 0,0.1361 0.03078,0.124 0.0794,0.2271 0.136171,0.3405 0.01017,0.022 -0.01871,0.055 0,0.067 -0.105895,0.1179 -0.272321,0.2049 -0.340402,0.3402 -0.02072,0.041 0,0.3473 0,0.4085 0,0.045 -0.03209,0.1037 0,0.1362 0.03209,0.033 0.104065,-0.033 0.136171,0 0.03209,0.033 0,0.091 0,0.1361 l 0,0.1362 c 0,0.8924 0.04307,-0.079 -0.136171,0.8172 -0.02702,0.1361 0,0.5377 0,0.6808 0,0.045 0.01423,0.095 0,0.1361 -0.03209,0.096 -0.116264,0.1728 -0.13615,0.2724 -0.03575,0.1788 0,0.6005 0,0.8169 0,0.073 -0.01789,0.5089 0,0.5447 0.02871,0.057 0.10746,0.079 0.13615,0.1361 0.02033,0.041 -0.02033,0.098 0,0.1362 0.150526,0.3012 0.0845,0.041 0.272321,0.1362 0.05742,0.028 0.07875,0.1056 0.13617,0.1361 0.0406,0.022 0.104064,-0.033 0.13617,0 0.03209,0.033 -0.03208,0.1037 0,0.1362 0.03209,0.033 0.09077,0 0.136171,0 l 0.13615,0 0.81696,0 0.680801,0 c 0.04538,0 0.09556,0.022 0.13617,0 0.0574,-0.028 0.07875,-0.1057 0.136171,-0.1362 0.04061,-0.022 0.104064,0.033 0.13615,0 0.186657,-0.1869 0.13617,-0.4493 0.13617,-0.681 0,-0.3193 -0.03208,0.063 0.13617,-0.2723 0.0035,0 0.0035,-0.4012 0,-0.4085 -0.02871,-0.057 -0.10746,-0.079 -0.13617,-0.1362 -0.02033,-0.041 0.02033,-0.095 0,-0.1361 -0.02871,-0.057 -0.10746,-0.079 -0.13617,-0.1362 -0.04278,-0.085 0.0428,-0.4591 0,-0.5446 -0.02871,-0.057 -0.10746,-0.079 -0.13615,-0.1362 -0.0406,-0.081 0.06419,-0.2089 0,-0.2721 -0.03209,-0.033 -0.104065,0.033 -0.136171,0 -0.03209,-0.033 0,-0.091 0,-0.1362 0,-0.045 -0.02033,-0.097 0,-0.1361 0.02871,-0.057 0.07875,-0.1057 0.136171,-0.1362 0.04061,-0.022 0.09557,0.022 0.13615,0 0.05742,-0.028 0.07527,-0.1158 0.13617,-0.1362 0.07802,-0.026 0.552971,0 0.680801,0 0.06132,0 0.367042,-0.022 0.408482,0 0.05742,0.029 0.07877,0.1057 0.136171,0.1362 0.128403,0.063 0.293659,0.051 0.408476,0.1362 0.21296,0.1585 0.13615,0.5895 0.13615,0.8167 0,0.061 0.02068,0.3673 0,0.4085 -0.311577,0.6231 0.05645,-0.5778 -0.27232,0.4085 -0.04087,0.1219 0.04087,0.2861 0,0.4085 -0.02035,0.061 -0.10744,0.079 -0.13615,0.1362 -0.02033,0.041 0.02033,0.095 0,0.1361 -0.169354,0.1687 -0.08206,0.1504 -0.06807,0.1362 0.01362,0 -0.01769,0.037 -0.06808,0.1361 -0.02873,0.057 -0.10744,0.079 -0.136171,0.1362 -0.02033,0.041 0,0.089 0,0.1362 0,0.095 0.01728,0.7816 0,0.8167 -0.02871,0.057 -0.100567,0.083 -0.13617,0.1362 -0.150403,0.2256 -0.13617,0.3091 -0.13617,0.5446 0,0.063 -0.0061,0.6748 0,0.6808 0.03208,0.033 0.09077,0 0.13617,0 l 0.13617,0 1.08928,0 0.13615,0 c 0.04534,0 0.104105,-0.032 0.13615,0 0.09052,0.092 -0.138143,0.2986 0.13615,0.4083 0.399779,0.1585 0.81696,0.2724 1.225439,0.4085 0.408484,0.1362 0.813909,0.2821 1.225443,0.4087 0.17889,0.055 0.361139,0.1 0.544639,0.1362 0.04455,0 0.104085,0.033 0.13615,0 0.03213,-0.033 0,-0.091 0,-0.1362 l 0,-1.0893 0,-0.1362 c 0,-0.045 -0.03213,-0.1036 0,-0.1361 0.03213,-0.033 0.104085,0.034 0.13615,0 0.03213,-0.033 0,-0.089 0,-0.1362 0,-0.034 0.0045,-0.404 0,-0.4085 -0.03213,-0.033 -0.09554,0.022 -0.13615,0 -0.168276,-0.085 -0.150078,-0.1239 -0.13615,-0.1361 l 0.13615,0 0.953119,0 0.27232,0 c -0.0017,0.055 0,0.1138 0,0.1361 0,0.043 0.0049,0.4768 0,0.4768 -0.0284,0.029 -0.03969,-0.028 -0.06808,0 -0.02839,0.029 0.02837,0.1077 0,0.1362 -0.0284,0.028 -0.118298,-0.035 -0.13615,0 -4.57e-4,10e-4 -0.02088,0.6395 0,0.6808 0.0254,0.051 0.110754,0.087 0.13615,0.1361 0.01545,0.031 0,0.4136 0,0.4766 0,0.039 0.02837,0.1077 0,0.1362 -0.05679,0.057 -0.200565,-0.035 -0.272324,0 -0.05079,0.024 -0.08233,0.1158 -0.13615,0.1361 -0.07617,0.024 -0.13249,-0.037 -0.204239,0 -0.03587,0.022 0,0.027 0,0.067 l 0,1.021 c 0,0.039 -0.02837,0.039 0,0.067 l 0.612719,0 0.544639,0 0.13615,0 c 0.04012,0 0.100303,0.022 0.13615,0 0.101482,-0.051 0.170797,-0.1565 0.272324,-0.2047 0.03589,-0.022 0.03969,0.028 0.06808,0 0.02574,-0.026 -0.02214,-0.4091 0,-0.4765 0.0284,-0.083 0.107765,-0.187 0.13615,-0.2724 0.02212,-0.065 -0.02576,-0.4503 0,-0.4765 0.02841,-0.029 0.09725,0 0.13615,0 0.123096,-0.029 0.226898,-0.079 0.340403,-0.1362 0.101483,-0.053 0.170798,-0.1544 0.272319,-0.2046 0.03591,-0.022 0.03223,0.022 0.06808,0 0.05079,-0.024 0.0854,-0.1078 0.13615,-0.1362 0.03591,-0.022 0.09725,0 0.13615,0 0.123055,-0.028 0.215241,-0.1158 0.340399,-0.1362 0.118745,-0.022 0.288097,0 0.408482,0 0.08024,0 0.13243,0.035 0.204242,0 0.03587,-0.022 -0.01301,-0.098 0,-0.1361 0.138264,-0.4156 0.13615,-0.067 0.13615,-0.3404 l 0,-0.3404 c 0.04012,0 0,-0.096 0,-0.1362 l 0,-0.1362 0,-0.4767 0,-1.1572 c 0,-0.028 -0.0041,-0.4085 0,-0.4085 0.0284,-0.028 0.100303,0.022 0.13615,0 0.101462,-0.051 0.102722,-0.1544 0.204239,-0.2046 0.03113,-0.022 0.663546,0 0.748878,0 0.04012,0 0.107765,0.028 0.13615,0 0.02836,-0.029 -0.01301,-0.098 0,-0.1362 0.05144,-0.1545 0.04738,-0.083 0.06808,-0.1362 0.04012,0 0,-0.096 0,-0.1361 l 0,-0.2047 0,-0.1361 0,-0.2049 c 0.04012,0 0.01749,-0.1 0,-0.1362 -0.0254,-0.049 -0.04268,-0.087 -0.06808,-0.1361 -0.148208,-0.2959 0.333646,0.1301 -0.13615,-0.3404 0,-0.079 0.0254,-0.1971 0,-0.2723 -0.02184,-0.065 -0.09829,-0.079 -0.13615,-0.1362 0.04012,0 0,-0.029 0,-0.067 0,-0.079 0.03589,-0.2012 0,-0.2723 -0.01749,-0.034 -0.107765,0.028 -0.13615,0 -0.06023,-0.061 0.06023,-0.2794 0,-0.3404 -0.02841,-0.028 -0.03969,0.029 -0.06808,0 -0.0049,0 0,-0.4331 0,-0.4766 0,-0.3205 0.02432,0.026 -0.13615,-0.1361 -0.02576,-0.026 0.02212,-0.4114 0,-0.4768 -0.02841,-0.085 -0.04642,-0.2723 -0.13615,-0.2723 0.0018,-0.126 -0.06417,-0.2209 -0.13615,-0.2723 -0.0185,0.022 -0.09603,0.022 -0.13615,-0.067 -0.03585,-0.071 0.03589,-0.1321 0,-0.2049 -0.05079,-0.1 -0.422228,0.2315 -0.204239,-0.2723 -0.05677,-0.057 0.05677,-0.1483 0,-0.2046 -0.06226,-0.063 -0.12149,-0.085 -0.13615,-0.067 -0.0045,0.024 -0.04223,0.1199 -0.13615,-0.067 -0.03585,-0.071 0.05677,-0.2158 0,-0.2723 -0.02841,-0.028 -0.03969,0.028 -0.06808,0 -0.06023,-0.061 0.06023,-0.2792 0,-0.3404 -0.02841,-0.028 -0.107765,0.028 -0.13615,0 -0.05677,-0.059 0.05677,-0.2156 0,-0.2723 -0.02841,-0.028 -0.107765,0.028 -0.13615,0 -0.02839,-0.028 0.02836,-0.039 0,-0.067 -0.02841,-0.028 -0.107765,0.029 -0.13615,0 -0.05677,-0.057 0.05677,-0.2156 0,-0.2723 -0.02841,-0.028 -0.03223,0.022 -0.06807,0 -0.101462,-0.053 -0.170798,-0.1545 -0.272321,-0.2049 -0.03589,-0.022 -0.107765,0.029 -0.13615,0 -0.02836,-0.028 0.01749,-0.1 0,-0.1361 -0.05081,-0.1 -0.153494,-0.1687 -0.204241,-0.2723 -0.01749,-0.035 0.02837,-0.039 0,-0.067 -0.0284,-0.028 -0.107765,0.028 -0.13615,0 -0.02839,-0.028 0.01749,-0.1 0,-0.1362 -0.0254,-0.049 -0.110774,-0.087 -0.13615,-0.1361 -0.03585,-0.073 0.05677,-0.2159 0,-0.2724 -0.0284,-0.028 -0.107765,0.028 -0.13615,0 -0.02836,-0.028 0.01749,-0.033 0,-0.067 -0.250564,-0.5004 0.04487,0.1138 -0.204239,-0.1362 -0.02837,-0.028 0.02837,-0.1057 0,-0.1361 -0.0284,-0.026 -0.107765,0.028 -0.13615,0 -0.02837,-0.026 0.02837,-0.1057 0,-0.1362 -0.0284,-0.028 -0.107765,0.028 -0.13615,0 -0.02839,-0.028 0.01749,-0.035 0,-0.067 -0.07464,-0.1504 -0.294585,-0.2178 -0.340401,-0.4085 -0.02836,-0.028 0.02836,-0.039 0,-0.067 -0.02841,-0.028 -0.107765,0.028 -0.13615,0 -0.02837,-0.028 0.02836,-0.1057 0,-0.1362 -0.02841,-0.028 -0.107765,0.028 -0.13615,0 -0.06228,-0.061 -0.01566,-0.1219 0,-0.1361 0.02413,0 0.119822,-0.041 -0.06808,-0.1362 -0.03591,-0.022 -0.107765,0.028 -0.13615,0 -0.06348,-0.063 -0.07275,-0.1423 -0.13615,-0.2049 -0.0284,-0.026 -0.100303,0.022 -0.13615,0 -0.101462,-0.053 -0.102723,-0.2221 -0.204244,-0.2723 -0.03591,-0.022 -0.100302,0.022 -0.136149,0 -0.05079,-0.024 -0.0854,-0.1097 -0.13615,-0.1361 -0.03591,-0.022 -0.03969,0.028 -0.06808,0 -0.02438,-0.024 -0.04845,-0.037 -0.06808,-0.067 -0.02651,0 -0.05392,0.022 -0.06807,0 -0.02837,-0.029 0.02836,-0.1057 0,-0.1362 -0.02841,-0.028 -0.107766,0.029 -0.13615,0 -0.02839,-0.028 0.02836,-0.1056 0,-0.1361 -0.02841,-0.028 -0.100303,0.022 -0.13615,0 -0.05079,-0.024 -0.08542,-0.1077 -0.13615,-0.1362 -0.03589,-0.022 -0.03223,0.022 -0.06808,0 -0.05081,-0.024 -0.08542,-0.041 -0.13615,-0.067 -0.03589,-0.022 -0.100303,0.022 -0.13615,0 -0.05079,-0.024 -0.0854,-0.1097 -0.13615,-0.1361 -0.04778,-0.024 -0.315778,0.024 -0.340398,0 -0.02836,-0.029 0.02837,-0.1077 0,-0.1362 -0.05677,-0.057 -0.147495,0.057 -0.204243,0 -0.02836,-0.028 0.02837,-0.1077 0,-0.1361 -0.05677,-0.057 -0.215565,0.057 -0.272316,0 -0.02836,-0.029 0.02836,-0.039 0,-0.067 -0.0284,-0.029 -0.107765,0.028 -0.13615,0 -0.02837,-0.029 0.02838,-0.1057 0,-0.1362 -0.02841,-0.028 -0.100303,0.022 -0.13615,0 -0.05079,-0.024 -0.01688,-0.1077 -0.06808,-0.1361 -0.03591,-0.022 -0.107765,0.028 -0.13615,0 -0.02837,-0.028 0.02836,-0.1057 0,-0.1362 -0.0284,-0.028 -0.107765,0.028 -0.13615,0 -0.0635,-0.063 -0.07277,-0.1423 -0.13615,-0.2046 -0.0284,-0.029 -0.03223,0.022 -0.06808,0 -0.05079,-0.024 -0.08542,-0.1118 -0.13615,-0.1362 -0.03591,-0.022 -0.107765,0.028 -0.13615,0 -0.02837,-0.029 0.02839,-0.1077 0,-0.1362 -0.469801,-0.4694 -0.04394,0.081 -0.340401,-0.067 -0.05079,-0.024 -0.0854,-0.1077 -0.13615,-0.1362 -0.0718,-0.037 -0.147496,0.057 -0.204242,0 -0.02836,-0.028 0.02837,-0.1057 0,-0.1362 -0.05677,-0.057 -0.215572,0.057 -0.27232,0 -0.02836,-0.026 0.02839,-0.1056 0,-0.1361 -0.05677,-0.057 -0.215577,0.057 -0.272322,0 -0.02839,-0.029 0.03589,-0.1159 0,-0.1362 -0.0718,-0.037 -0.123971,0 -0.204239,0 -0.04012,0 -0.107766,0.029 -0.13615,0 -0.02839,-0.028 0.02838,-0.039 0,-0.067 -0.02839,-0.029 -0.09601,0 -0.13615,0 l -0.340402,0 -0.476559,0 -0.340402,0 c -0.02836,-0.029 0.02839,-0.1078 0,-0.1362 -0.02265,-0.022 -0.414716,0.022 -0.476559,0 -0.32101,-0.2012 -0.540359,-0.2524 -0.680801,-0.2723 z"
         style="color:#000000;fill:url(#linearGradient6662);fill-opacity:1;fill-rule:nonzero;stroke:none;stroke-width:1px;marker:none;visibility:visible;display:inline;overflow:visible;enable-background:accumulate" />
      <path
         id="path3739"
         d="m 30.102328,1030.2417 c 0,-0.057 0.0794,0.1362 0.13615,0.1362 0.04012,0 0.02837,-0.1057 0,-0.1362 -0.0284,-0.026 -0.107765,0.028 -0.13615,0 z"
         style="color:#000000;fill:#ffffff;fill-opacity:1;fill-rule:nonzero;stroke:none;stroke-width:1px;marker:none;visibility:visible;display:inline;overflow:visible;enable-background:accumulate" />
      <path
         id="path3737"
         d="m 2.9156596,1029.9238 c -0.1934709,0 -0.3723578,0.1849 -0.5446404,0.2723 0.3044304,-0.1768 0.076249,-0.087 -0.1361622,0 -0.028385,0.028 -0.039715,-0.028 -0.068079,0 -0.028365,0.028 0.028365,0.1077 0,0.1361 -0.028387,0.028 -0.1077955,-0.028 -0.1361601,0 -0.028365,0.028 0.028365,0.039 0,0.067 -0.028387,0.028 -0.1077956,-0.028 -0.1361602,0 -0.028365,0.028 0.017873,0.1 0,0.1362 -0.02538,0.049 -0.1107784,0.087 -0.1361601,0.1361 -0.035882,0.073 0.056751,0.2157 0,0.2724 -0.060194,0.061 -0.1135885,0.043 -0.1361602,0 0.00176,0 -0.00188,0.051 0,0.067 l 0,0.1362 0,0.1361 c -0.011509,-0.022 0.0063,-0.022 -0.068081,0.1362 -0.03588,0.071 0.035882,0.1321 0,0.2047 -0.02538,0.049 -0.1107804,0.087 -0.1361601,0.1361 -0.081554,0.1626 0.064759,0.1382 0.1361601,0.1362 -0.02896,0.049 -0.1101033,0.1788 -0.2723203,0.3404 0.0018,0.126 -0.064203,0.2207 -0.1361601,0.2723 -0.010024,0.049 -0.040129,0.067 0,0.067 0,0.039 0.017873,0.1016 0,0.1361 -0.099811,0.2012 -0.067433,0.185 -0.068079,0.1362 -0.02538,0.049 -0.11078039,0.087 -0.13616009,0.1362 -0.069372,0.1402 0.19299499,0.3402 -0.2723203,0.3402 0,0.039 0.012627,0.1 0,0.1361 -0.031254,0.093 -0.050375,0.028 -0.068081,0.067 l 0,0.1362 c 0,0.039 0.028365,0.1077 0,0.1361 -0.028387,0.028 -0.1077956,-0.028 -0.1361602,0 -0.028364,0.028 0,0.098 0,0.1362 l 0,0.8169 0,0.2724 0,0.3402 0,0.1361 0,0.067 c -9.219e-4,0.1199 -0.00411,0.4085 0,0.4085 0.028387,0.028 0.1077956,-0.029 0.1361602,0 0.032939,0.032 -0.032657,0.4109 0,0.4763 0.02538,0.049 0.042699,0.022 0.068081,0.067 0.015697,0.029 0.00506,0.3437 0,0.5447 l 0,0.067 0,0.1362 0,0.1361 0,0.1362 0,0.067 c -8.784e-4,0.1 -0.00313,0.2723 0,0.2723 0.028387,0.028 0.1077956,-0.028 0.1361601,0 0.028365,0.028 0,0.098 0,0.1362 l 0,0.067 0,0.1362 0,0.1361 c 0,0.2823 -0.012586,-0.093 0.1361602,0.2049 0.023855,0.047 -0.024617,0.3845 0,0.4087 0.028387,0.028 0.10779559,-0.029 0.13616009,0 0.037275,0.037 -0.037274,0.5755 0,0.6125 0.028387,0.028 0.039717,-0.028 0.068081,0 0.028365,0.028 0,0.028 0,0.067 l 0,0.1361 0,0.1362 0,0.1362 c -7.529e-4,0.1016 -0.00234,0.2048 0,0.2048 0.028387,0.029 0.1077956,-0.028 0.1361602,0 0.028365,0.029 0,0.096 0,0.1362 l 0,0.1361 c -0.040129,0 -0.017873,0.1 0,0.1362 0.02538,0.049 0.1107804,0.022 0.1361601,0.067 0.048147,0.096 -0.048147,0.3125 0,0.4085 0.017954,0.034 0.1077956,-0.028 0.1361602,0 0.056751,0.059 -0.056752,0.1483 0,0.2048 0.028387,0.026 0.039714,-0.028 0.068081,0 0.056751,0.057 -0.056752,0.2156 0,0.2723 0.028387,0.026 0.1077955,-0.028 0.1361601,0 0.060194,0.061 -0.060194,0.2795 0,0.3404 0.028387,0.028 0.1182956,-0.034 0.1361602,0 0.017934,0.035 0.00449,0.095 0,0.1362 0.040131,0 0,0.1788 0,0.1362 0.02538,0.049 0.1107784,0.022 0.1361601,0.067 0.017873,0.037 -0.028365,0.1077 0,0.1362 0.028387,0.028 0.1077956,-0.029 0.1361602,0 0.056752,0.057 -0.056752,0.2158 0,0.2723 0.028387,0.029 0.039714,-0.028 0.068079,0 0.028365,0.029 -0.017852,0.033 0,0.067 0.02538,0.049 0.1107784,0.087 0.1361622,0.1361 0.017832,0.035 -0.028365,0.1077 0,0.1362 0.028387,0.028 0.1077996,-0.028 0.1361622,0 0.056754,0.059 -0.025378,0.128 0,0.2046 0.028387,0.083 0.046426,0.2724 0.1361622,0.2724 0,0.039 -0.028367,0.1077 0,0.1361 0.028387,0.028 0.039712,-0.028 0.068077,0 0.056754,0.057 -0.056754,0.1484 0,0.2047 0.028387,0.028 0.1077976,-0.029 0.1361642,0 0.028365,0.028 -0.028365,0.1077 0,0.1361 0.028387,0.029 0.1077996,-0.028 0.1361642,0 0.028365,0.029 -0.028365,0.1077 0,0.1362 0.028387,0.028 0.1077976,-0.029 0.1361622,0 0.028365,0.028 -0.028365,0.039 0,0.067 0.028387,0.028 0.039712,-0.029 0.068077,0 0.056754,0.057 -0.035884,0.2012 0,0.2723 0.025376,0.049 0.1182956,0.081 0.1361642,0.1362 0.016958,0.049 0.00563,0.081 0,0.1361 -0.040127,0 0,0.028 0,0.067 0,0.081 -0.035884,0.2012 0,0.2723 0.017913,0.035 0.1235252,-0.037 0.1361582,0 0.015229,0.045 0.00183,0.087 0,0.1362 l 0,0.067 c 0,0.2823 -0.012607,-0.026 0.1361642,0.2724 0.017832,0.034 -0.028365,0.1077 0,0.1361 0.028387,0.028 0.1077976,-0.028 0.1361581,0 0.028365,0.028 -0.028367,0.039 0,0.067 0.028387,0.028 0.032203,-0.022 0.068077,0 0.050759,0.024 0.085403,0.1097 0.1361642,0.1361 0.071784,0.035 0.2155684,-0.057 0.2723201,0 0.028367,0.029 -0.028367,0.1078 0,0.1362 0.05676,0.057 0.1474877,-0.057 0.2042402,0 0.028365,0.028 -0.017832,0.1016 0,0.1362 0.025378,0.049 0.096029,0.028 0.1361582,0.067 0.040131,0.039 0.085403,0.1098 0.1361621,0.1362 0.035906,0.022 0.039713,-0.028 0.068077,0 0.028365,0.028 -0.017832,0.1 0,0.1362 0.093961,0.1869 0.1318251,0.091 0.1361581,0.067 0.01466,-0.022 0.073896,0 0.1361642,0.067 0.028365,0.026 -0.028367,0.1077 0,0.1361 0.028387,0.028 0.1077976,-0.028 0.1361581,0 0.028365,0.028 -0.028367,0.039 0,0.067 0.028387,0.026 0.039713,-0.028 0.068077,0 0.056754,0.059 -0.056754,0.2156 0,0.2723 0.028387,0.028 0.1077976,-0.028 0.1361622,0 0.028367,0.028 -0.028367,0.1077 0,0.1362 0.056758,0.057 0.2155686,-0.057 0.2723201,0 0.028367,0.028 -0.028365,0.039 0,0.067 0.028387,0.028 0.1077956,-0.028 0.1361622,0 0.056754,0.057 -0.035884,0.2012 0,0.2723 0.025378,0.049 0.042701,0.085 0.068077,0.1361 0.017832,0.037 -0.028367,0.039 0,0.067 0.028387,0.029 0.1077976,-0.028 0.1361642,0 0.056754,0.059 -0.056753,0.2156 0,0.2723 0.028387,0.028 0.1002805,-0.022 0.1361581,0 0.1015046,0.053 0.1027205,0.1545 0.2042405,0.2049 0.035906,0.022 0.1077976,-0.029 0.1361642,0 0.028365,0.028 -0.028365,0.1077 0,0.1361 0.148238,0.1464 0.2723203,-0.3359 0.2723203,0.2724 0.028365,0.028 -0.028367,0.1077 0,0.1361 0.028387,0.029 0.029147,0 0.068077,0 0.083178,0.022 0.1919723,0.039 0.2723201,0.067 0.05725,0 0.1645308,0.028 0.1361622,0 l 0.3403997,0 c 0.054452,0 0.7167903,0.022 0.7488819,0 0.050751,-0.024 0.027958,-0.026 0.068075,-0.067 0.040137,-0.039 0.1107743,-0.087 0.1361703,-0.1361 0.035888,-0.071 -0.035888,-0.2012 0,-0.2724 0.025376,-0.049 0.1107743,-0.087 0.13615,-0.1361 0.0183,-0.037 0,-0.286 0,-0.3404 l 0,-0.9532 c 0,-0.055 0.0183,-0.3036 0,-0.3406 -0.025376,-0.049 -0.1107744,-0.087 -0.13615,-0.1361 -0.035888,-0.073 0.05675,-0.2156 0,-0.2723 -0.028385,-0.029 -0.1002825,0.022 -0.1361703,0 -0.1015025,-0.053 -0.1027225,-0.1565 -0.2042413,-0.2049 -0.035908,-0.022 -0.1002825,0.022 -0.1361499,0 -0.050751,-0.024 -0.096033,-0.096 -0.1361704,-0.1362 -0.040137,-0.039 -0.042699,-0.085 -0.068075,-0.1361 -0.017893,-0.035 0.017893,-0.033 0,-0.067 -0.050751,-0.1 -0.2215588,-0.1687 -0.2723203,-0.2723 -0.017893,-0.035 0.028365,-0.1077 0,-0.1362 -0.028385,-0.028 -0.1078057,0.028 -0.1361499,0 -0.028365,-0.028 0.028365,-0.039 0,-0.067 -0.028385,-0.028 -0.03971,0.028 -0.068075,0 -0.028365,-0.028 0.028365,-0.1057 0,-0.1362 -0.028385,-0.028 -0.1077976,0.028 -0.1361642,0 -0.028365,-0.028 0.017832,-0.1 0,-0.1362 -0.02538,-0.051 -0.1107805,-0.085 -0.1361602,-0.1361 -0.017832,-0.035 0,-0.095 0,-0.1362 l 0,-0.067 0,-0.4085 0,-0.067 c 0,-0.039 -0.017832,-0.1 0,-0.1362 0.02538,-0.049 0.096029,-0.095 0.1361602,-0.1361 0.040131,-0.039 0.096029,-0.095 0.1361642,-0.1362 0.1203715,-0.1199 0.2041965,-0.238 0.3403993,-0.3404 0.071776,-0.053 0.1295824,-0.087 0.2042413,-0.1362 0.047234,-0.028 0.085399,-0.041 0.1361703,-0.067 0.035908,-0.022 0.1078057,0.028 0.13615,0 0.028364,-0.028 -0.035888,-0.1159 0,-0.1362 0.1435715,-0.073 0.332992,0.073 0.4765595,0 0.035888,-0.022 -0.028365,-0.1057 0,-0.1361 0.2490389,-0.2484 0.021817,0.365 0.2723203,-0.1362 0.017893,-0.035 0,-0.029 0,-0.067 l 0,-0.1361 0,-0.6126 0,-0.1361 c 0,-0.039 -0.017893,-0.1 0,-0.1362 0.025376,-0.049 0.050223,-0.022 0.068075,-0.067 0.025376,-0.077 -0.019316,-0.1951 0,-0.2724 0.021756,-0.087 0.1078057,-0.1199 0.1361703,-0.2048 0.012607,-0.037 0,-0.095 0,-0.1362 l 0,-0.7493 c 0,-0.026 0.013623,-0.4501 0,-0.4763 -0.025376,-0.049 -0.096033,-0.096 -0.1361703,-0.1362 -0.2110732,-0.2091 -0.1528028,-0.1484 -0.6127197,-0.2049 -0.2787171,-0.034 -0.5360763,0 -0.8169609,0 -0.040137,0 -0.1078057,-0.028 -0.13615,0 -0.024623,0.024 0.023851,0.2927 0,0.3405 -0.025376,0.049 -0.042699,0.087 -0.068075,0.1361 -0.048145,0.098 0.048149,0.2445 0,0.3404 -0.025376,0.049 -0.1107804,0.085 -0.1361581,0.1362 -0.035884,0.071 0.035884,0.1321 0,0.2046 -0.050768,0.1016 -0.2215595,0.1687 -0.2723201,0.2724 -0.083022,0.1666 0.1300054,0.1402 -0.1361601,0.2723 -0.035906,0.022 -0.02795,0 -0.068077,0 l -0.6127205,0 -0.3404004,0 c -0.040127,0 -0.1077955,0.028 -0.1361642,0 -0.028365,-0.028 0,-0.095 0,-0.1362 0,-0.063 -0.015921,-0.4463 0,-0.4768 0.02538,-0.049 0.1107805,-0.087 0.1361642,-0.1361 0.017832,-0.035 0,-0.095 0,-0.1362 l 0,-0.1361 0,-0.5447 c 0,-0.039 -0.017832,-0.1 0,-0.1361 0.025376,-0.049 0.042701,-0.087 0.068077,-0.1362 0.017832,-0.035 0,-0.098 0,-0.1362 l 0,-0.6808 c 0,-0.039 0.028365,-0.1077 0,-0.1361 -0.028387,-0.028 -0.032199,0.022 -0.068077,0 -0.050759,-0.024 -0.082326,-0.1159 -0.1361642,-0.1362 -0.076119,-0.024 -0.2005386,0.037 -0.2723201,0 -0.035884,-0.022 0.028367,-0.1077 0,-0.1362 -0.028387,-0.028 -0.1077976,0.029 -0.1361581,0 -0.028365,-0.028 0.028367,-0.039 0,-0.067 -0.056758,-0.057 -0.1474857,0.057 -0.20424,0 -0.028367,-0.028 0.022265,-0.1016 0,-0.1362 -0.2082566,-0.3126 -0.270262,-0.2794 -0.2723203,-0.3404 -0.040127,0 0,-0.1788 0,-0.1362 -0.025378,-0.049 -0.042701,-0.087 -0.068077,-0.1361 -0.017832,-0.035 0,-0.096 0,-0.1362 -0.040131,0 -0.1077956,0.029 -0.1361622,0 -0.028367,-0.028 0.028365,-0.039 0,-0.067 -0.028387,-0.028 -0.1077976,0.028 -0.1361581,0 -0.028367,-0.028 0,-0.096 0,-0.1362 l 0,-0.1362 0,-0.6127 0,-0.1362 c 0,-0.039 -0.017832,-0.033 0,-0.067 0.1487524,-0.2973 0.1361581,0 0.1361581,-0.2724 l 0,-0.1361 c 0,-0.039 -0.028367,-0.039 0,-0.067 0.2006443,-0.2012 0.1361622,0.4095 0.1361622,-0.2725 0.03589,-0.073 0.1474876,0.057 0.2042402,0 0.028367,-0.026 -0.028365,-0.1077 0,-0.1362 0.028387,-0.028 0.1077976,0.028 0.1361601,0 0.028365,-0.028 -0.028367,-0.039 0,-0.067 0.028387,-0.029 0.1077976,0.028 0.1361602,0 0.033712,-0.033 -0.160204,-0.7054 0.2042402,-0.4085 0.033401,-0.022 0.1077956,0.028 0.1361601,0 0.028365,-0.026 -0.017832,-0.033 0,-0.067 0.1330919,-0.2658 0.1062727,-0.053 0.2723201,-0.1361 0.050759,-0.024 0.02795,-0.096 0.068077,-0.1362 0.040127,-0.039 0.096029,-0.098 0.1361642,-0.1362 0.1497202,-0.1504 0.1491285,-0.081 0.1361601,-0.067 0.00795,0.022 0.047596,-0.024 0.1361622,-0.067 0.1015045,-0.051 0.1027205,-0.1544 0.2042402,-0.2046 0.031652,-0.022 0.4136219,0 0.4765606,0 l 0.2723201,0 c 0.1203735,0 0.2236074,0.028 0.3404003,0 0.055041,-0.022 0.085399,-0.1078 0.13615,-0.1362 0.075659,-0.037 0.4008983,0.037 0.4765595,0 0.050751,-0.024 0.085399,-0.1077 0.1361703,-0.1362 0.035908,-0.022 0.03971,0.028 0.068075,0 0.056749,-0.057 -0.05675,-0.1483 0,-0.2048 0.028385,-0.029 0.1078058,0.028 0.13615,0 0.028365,-0.029 0,-0.096 0,-0.1362 l 0,-0.2048 c 0,-0.055 0.0183,-0.3715 0,-0.4085 -0.072223,-0.1443 -0.2681805,-0.1972 -0.3403994,-0.3404 -0.017893,-0.035 0.017893,-0.1 0,-0.1362 -0.025376,-0.049 -0.1107743,-0.087 -0.1361499,-0.1362 -0.017893,-0.034 0.017893,-0.033 0,-0.067 -0.025376,-0.049 -0.1107744,-0.085 -0.1361704,-0.1362 -0.035888,-0.075 0.05675,-0.2156 0,-0.2723 -0.028385,-0.029 -0.03971,0.028 -0.068075,0 -0.028365,-0.029 0.017893,-0.033 0,-0.067 -0.025376,-0.049 -0.1107744,-0.087 -0.1361704,-0.1361 -0.066184,-0.1321 0.1001402,-0.2226 -0.1361499,-0.3402 -0.1087818,-0.055 -0.2903159,0.045 -0.3404012,0.067 -0.038084,0.022 -0.1077956,-0.028 -0.1361602,0 -0.028367,0.028 0.028365,0.1077 0,0.1362 -0.028387,0.028 -0.096029,0 -0.1361601,0 l -0.1361602,0 -0.2042406,0 c -0.040127,0 -0.1002805,0.022 -0.1361642,0 -0.050759,-0.024 -0.085403,-0.1097 -0.1361602,-0.1362 -0.2130895,-0.098 -0.00466,0.2315 -0.2042404,-0.067 -0.049777,-0.075 -0.072715,-0.2091 -0.1361642,-0.2724 l -0.3404004,0 -0.9531208,0 c -0.062949,0 -0.4449057,0.022 -0.4765603,0 -0.03196,-0.022 -0.392577,-0.3078 -0.4084807,-0.3404 -0.017832,-0.034 0.028365,-0.1077 0,-0.1361 -1.893e-4,-2e-4 -0.3394829,4e-4 -0.3403998,0 -0.1980396,-0.065 -0.3362613,-0.2723 -0.544641,-0.2723 z"
         style="color:#000000;fill:url(#linearGradient6664);fill-opacity:1;fill-rule:nonzero;stroke:none;stroke-width:1px;marker:none;visibility:visible;display:inline;overflow:visible;enable-background:accumulate" />
      <path
         id="path3735"
         d="m 7.3635895,1049.5084 c 0,0.057 -0.079409,-0.1362 -0.1361601,-0.1362 -0.040131,0 -0.028365,0.1077 0,0.1362 0.028387,0.028 0.1077955,-0.028 0.1361601,0 z"
         style="color:#000000;fill:#ffffff;fill-opacity:1;fill-rule:nonzero;stroke:none;stroke-width:1px;marker:none;visibility:visible;display:inline;overflow:visible;enable-background:accumulate" />
      <path
         id="path3733"
         d="m 1.3044641,1034.1221 c 0.040129,-0.039 0.1107805,-0.087 0.1361602,-0.1362 0.017873,-0.034 0.028364,-0.1625 0,-0.1361 -0.063439,0.063 -0.2258734,0.2723 -0.1361602,0.2723 z"
         style="color:#000000;fill:#ffffff;fill-opacity:1;fill-rule:nonzero;stroke:none;stroke-width:1px;marker:none;visibility:visible;display:inline;overflow:visible;enable-background:accumulate" />
      <path
         id="path3888"
         d="m 17.235199,1041.6793 c -0.05616,0.022 -0.03995,0.089 -0.06808,0.067 -0.234131,0.098 -0.143571,0.022 -0.204241,0.1361 -0.01647,0.033 -0.115898,0.1362 -0.13615,0.1362 -0.06856,0.075 -0.10803,0.089 -0.13617,0.067 -0.03251,0 -0.13615,0.2724 -0.13615,0.2724 -0.02013,0.041 -0.187024,0.3402 -0.20424,0.3402 -0.2015,0.045 -0.616794,0.041 -0.816961,0.067 -0.137471,0.022 -0.279095,0.028 -0.40848,0.067 -0.07336,0.037 -0.094,0.089 -0.204239,0.1362 -0.01403,0 -0.807964,0 -0.748882,0.1361 -0.0124,0.095 0.108029,0.1159 0.13617,0.1362 0.04847,0.126 -0.198735,0 0.06808,0.1361 l -0.204239,0.5447 c 0.755968,0.3725 0.942249,0.4377 1.15736,0.5446 0.127997,0.047 0.227899,0.022 0.3404,0.067 0.03977,0.022 0.09638,0.045 0.13617,0.067 0.05622,0.022 0.147984,-0.095 0.204241,-0.067 0.03977,0.022 0.02832,0.045 0.06808,0.067 0.05622,0.022 0.147984,-0.029 0.204239,0 0.03977,0.022 0.09168,0.045 0.136171,0.067 l 0.13617,0.067 c 0.266812,0.1301 0.550149,0.2776 0.816961,0.4085 0.177873,0.087 0.366783,0.1849 0.544641,0.2723 0.04449,0.022 0.116325,0.067 0.13615,0.067 0.01179,0.026 -0.20424,0.3402 -0.20424,0.3402 -0.101401,0.2048 -0.239576,0.4081 -0.340401,0.6129 -0.01179,0.024 -0.155995,0.3402 -0.13617,0.3402 -0.0124,0.098 0.04825,0.2049 0.06808,0.2049 0.01179,0.047 -0.130965,0.036 -0.06808,0.067 0.05899,0.1301 0.28269,0.2093 0.40848,0.2726 0.05622,0.028 0.01179,0.1768 0.06808,0.2048 0.03979,0.022 0.0964,-0.022 0.13617,0 0.05622,0.028 0.01179,0.1768 0.06808,0.2045 0.317017,0.2583 0.63749,0.4233 1.0212,0.6131 l 0.13615,0.067 c 0.04449,0.022 0.0964,-0.022 0.136171,0 0.05626,0.022 0.144588,-0.028 0.204241,0 0.08438,0.041 0.187938,0.093 0.27232,0.1361 0.05968,0.024 0.0917,-0.022 0.13615,0 0.105325,0.022 0.251449,-0.043 0.3404,0 0.08493,-0.065 0.159777,-0.022 0.204241,0 0.08493,-0.065 0.108029,-0.089 0.13617,-0.067 0.021,0 0.136171,-0.2048 0.136171,-0.2048 0.03497,-0.073 0.02763,-0.1219 0.06808,-0.2047 0.01606,-0.033 0.08955,-0.1361 0.06807,-0.1361 -0.0053,-0.077 -0.08094,-0.1077 -0.06807,-0.2049 0.002,-0.069 0.09571,-0.189 0.13617,-0.2721 0.02891,-0.059 0.05356,-0.1443 0.13615,-0.2048 0.06035,-0.079 0.108009,-0.022 0.13615,0 0.06027,-0.083 0.04823,-0.067 0.06808,-0.067 0.06858,-0.075 0.09168,-0.087 0.13615,-0.067 0.08495,-0.065 0.147943,-0.028 0.204237,0 0.07956,0.039 0.192757,0.098 0.272322,0.1362 0.108253,0.028 0.122019,0 0.13615,0 -0.01972,-0.024 -0.03133,-0.022 0.272319,0.1362 0.04898,0.024 0.539193,0.2048 0.544642,0.2048 0.03154,0.022 0.03662,-0.087 0.06808,-0.067 0.218328,0 0.04786,0.1708 0.272318,0.067 0.04443,-0.022 0.06808,-0.1362 0.06808,-0.1362 0.04046,-0.083 0.04825,-0.067 0.06808,-0.067 0.06856,-0.075 0.108009,-0.022 0.13615,0 0.06033,-0.083 0.04823,-0.1362 0.06808,-0.1362 0.158984,-0.063 0.273628,0.1382 0.476562,0.1362 0.03154,0.022 0,-0.1362 0,-0.1362 0.03172,-0.063 0.226827,-0.3188 0.204239,-0.3406 0.01281,-0.095 -0.03995,-0.1829 -0.06808,-0.2046 -0.02832,-0.079 0.08095,-0.027 0.06808,-0.1362 -0.06663,-0.2374 -0.02013,-0.1138 -0.204239,-0.2047 -0.05626,-0.028 -0.07989,-0.1077 -0.13615,-0.1361 -0.03977,-0.022 -0.09638,-0.045 -0.13615,-0.067 -0.05626,-0.028 -0.0122,-0.1768 -0.06808,-0.2048 -0.03512,-0.022 -0.474884,-0.1687 -0.544645,-0.2047 l -1.29352,-0.681 c -0.133405,-0.067 -0.277672,-0.1402 -0.408479,-0.2046 -0.520484,-0.2911 -0.04197,-0.093 -0.340403,-0.3404 -0.08536,-0.1443 -0.291484,-0.2157 -0.408482,-0.2724 -0.03699,-0.022 0.06808,-0.067 0.06808,-0.067 0.02351,-0.047 0.15573,-0.3402 0.13617,-0.3402 -0.01993,0 -0.116346,-0.067 -0.13617,-0.067 -0.02338,-0.053 0.0962,-0.045 0.06808,-0.067 0.02056,-0.091 -0.03995,-0.1829 -0.06808,-0.2048 -0.01301,-0.041 0.09534,-0.1159 0.06808,-0.1362 -0.03148,-0.022 -0.0964,-0.045 -0.136171,-0.067 -0.05624,-0.028 -0.01179,-0.1057 -0.06807,-0.1362 -0.03979,-0.022 -0.0964,-0.045 -0.13617,-0.067 -0.05624,-0.028 -0.07991,-0.1768 -0.13617,-0.2048 -0.04059,-0.022 -0.280316,-0.1037 -0.340398,-0.1362 -0.266814,-0.1321 -0.550147,-0.2778 -0.816961,-0.4085 -0.896721,-0.4418 -0.225566,-0.1239 -1.293522,-0.4767 -0.175759,-0.057 -0.516254,-0.2478 -0.680801,-0.2047 z"
         style="color:#000000;fill:url(#linearGradient6666);fill-opacity:1;fill-rule:nonzero;stroke:none;stroke-width:1px;marker:none;visibility:visible;display:inline;overflow:visible;enable-background:accumulate" />
      <path
         transform="matrix(2.178562,0,0,2.3461633,32.339149,1038.7083)"
         d="m -0.5,-1 c 0,3.5898509 -3.1340068,6.5 -7,6.5 -3.865993,0 -7,-2.9101491 -7,-6.5 0,-3.5898509 3.134007,-6.5 7,-6.5 3.8659932,0 7,2.9101491 7,6.5 z"
         sodipodi:ry="6.5"
         sodipodi:rx="7"
         sodipodi:cy="-1"
         sodipodi:cx="-7.5"
         id="path3102-9"
         style="color:#000000;fill:none;stroke:#2b4265;stroke-width:0.22937518;stroke-miterlimit:4;stroke-opacity:1;stroke-dasharray:none;marker:none;visibility:visible;display:inline;overflow:visible;enable-background:accumulate"
         sodipodi:type="arc" />
    </g>
  </g>
</svg>
