<?xml version="1.0" encoding="UTF-8" standalone="no"?>
<!-- Created with Inkscape (http://www.inkscape.org/) -->

<svg
   xmlns:dc="http://purl.org/dc/elements/1.1/"
   xmlns:cc="http://creativecommons.org/ns#"
   xmlns:rdf="http://www.w3.org/1999/02/22-rdf-syntax-ns#"
   xmlns:svg="http://www.w3.org/2000/svg"
   xmlns="http://www.w3.org/2000/svg"
   xmlns:sodipodi="http://sodipodi.sourceforge.net/DTD/sodipodi-0.dtd"
   xmlns:inkscape="http://www.inkscape.org/namespaces/inkscape"
   width="32"
   height="32"
   id="svg2"
   version="1.1"
   inkscape:version="0.47pre3 r22311"
   sodipodi:docname="warning.svg"
   inkscape:export-filename="/Users/gerdbartelt/Public/warning.png"
   inkscape:export-xdpi="90"
   inkscape:export-ydpi="90">
  <defs
     id="defs4">
    <inkscape:perspective
       sodipodi:type="inkscape:persp3d"
       inkscape:vp_x="0 : 526.18109 : 1"
       inkscape:vp_y="0 : 1000 : 0"
       inkscape:vp_z="744.09448 : 526.18109 : 1"
       inkscape:persp3d-origin="372.04724 : 350.78739 : 1"
       id="perspective10" />
    <inkscape:perspective
       id="perspective3601"
       inkscape:persp3d-origin="0.5 : 0.33333333 : 1"
       inkscape:vp_z="1 : 0.5 : 1"
       inkscape:vp_y="0 : 1000 : 0"
       inkscape:vp_x="0 : 0.5 : 1"
       sodipodi:type="inkscape:persp3d" />
    <inkscape:perspective
       id="perspective3623"
       inkscape:persp3d-origin="0.5 : 0.33333333 : 1"
       inkscape:vp_z="1 : 0.5 : 1"
       inkscape:vp_y="0 : 1000 : 0"
       inkscape:vp_x="0 : 0.5 : 1"
       sodipodi:type="inkscape:persp3d" />
    <inkscape:perspective
       id="perspective3623-3"
       inkscape:persp3d-origin="0.5 : 0.33333333 : 1"
       inkscape:vp_z="1 : 0.5 : 1"
       inkscape:vp_y="0 : 1000 : 0"
       inkscape:vp_x="0 : 0.5 : 1"
       sodipodi:type="inkscape:persp3d" />
    <inkscape:perspective
       id="perspective3654"
       inkscape:persp3d-origin="0.5 : 0.33333333 : 1"
       inkscape:vp_z="1 : 0.5 : 1"
       inkscape:vp_y="0 : 1000 : 0"
       inkscape:vp_x="0 : 0.5 : 1"
       sodipodi:type="inkscape:persp3d" />
    <inkscape:perspective
       id="perspective3676"
       inkscape:persp3d-origin="0.5 : 0.33333333 : 1"
       inkscape:vp_z="1 : 0.5 : 1"
       inkscape:vp_y="0 : 1000 : 0"
       inkscape:vp_x="0 : 0.5 : 1"
       sodipodi:type="inkscape:persp3d" />
  </defs>
  <sodipodi:namedview
     id="base"
     pagecolor="#ffffff"
     bordercolor="#666666"
     borderopacity="1.0"
     inkscape:pageopacity="0.0"
     inkscape:pageshadow="2"
     inkscape:zoom="4"
     inkscape:cx="-33.90557"
     inkscape:cy="17.567762"
     inkscape:document-units="px"
     inkscape:current-layer="layer1"
     showgrid="true"
     inkscape:window-width="1083"
     inkscape:window-height="786"
     inkscape:window-x="335"
     inkscape:window-y="171"
     inkscape:window-maximized="0">
    <inkscape:grid
       type="xygrid"
       id="grid2818"
       empspacing="5"
       visible="true"
       enabled="false"
       snapvisiblegridlinesonly="true" />
  </sodipodi:namedview>
  <metadata
     id="metadata7">
    <rdf:RDF>
      <cc:Work
         rdf:about="">
        <dc:format>image/svg+xml</dc:format>
        <dc:type
           rdf:resource="http://purl.org/dc/dcmitype/StillImage" />
        <dc:title></dc:title>
      </cc:Work>
    </rdf:RDF>
  </metadata>
  <g
     inkscape:label="Ebene 1"
     inkscape:groupmode="layer"
     id="layer1"
     transform="translate(0,-1020.3622)">
    <path
       style="color:#000000;fill:#ffffff;fill-opacity:1;fill-rule:nonzero;stroke:#000000;stroke-width:6;stroke-linecap:square;stroke-linejoin:round;stroke-miterlimit:4;stroke-opacity:1;stroke-dasharray:none;stroke-dashoffset:0;marker:none;visibility:visible;display:inline;overflow:visible;enable-background:accumulate"
       d="m 16,1024.3622 13,22 -26,0 13,-22 z"
       id="path2816-8"
       sodipodi:nodetypes="cccc" />
    <path
       style="color:#000000;fill:#ffffff;fill-opacity:1;fill-rule:nonzero;stroke:#ffffff;stroke-width:4;stroke-linecap:square;stroke-linejoin:round;stroke-miterlimit:4;stroke-opacity:1;stroke-dasharray:none;stroke-dashoffset:0;marker:none;visibility:visible;display:inline;overflow:visible;enable-background:accumulate"
       d="m 16,1024.3622 13,22 -26,0 13,-22 z"
       id="path2816-8-2"
       sodipodi:nodetypes="cccc" />
    <path
       style="color:#000000;fill:#ffffff;fill-opacity:1;fill-rule:nonzero;stroke:#d50000;stroke-width:3;stroke-linecap:square;stroke-linejoin:round;stroke-miterlimit:4;stroke-opacity:1;stroke-dasharray:none;stroke-dashoffset:0;marker:none;visibility:visible;display:inline;overflow:visible;enable-background:accumulate"
       d="m 16,1024.3622 13,22 -26,0 13,-22 z"
       id="path2816-8-0"
       sodipodi:nodetypes="cccc" />
    <g
       style="font-size:20.20755196px;font-style:normal;font-variant:normal;font-weight:normal;font-stretch:normal;text-align:start;text-anchor:start;fill:#000000;fill-opacity:1;stroke:none;font-family:Serto Kharput;-inkscape-font-specification:Serto Kharput"
       id="text3690">
      <path
         d="m 17.98154,1031.5073 c -5e-6,0.2697 -0.04934,0.6282 -0.148004,1.0755 -0.0921,0.4408 -0.210501,0.9604 -0.355211,1.559 -0.138143,0.5657 -0.296014,1.2729 -0.473615,2.1214 -0.17761,0.842 -0.365082,1.8846 -0.562417,3.1278 l -0.759756,0 c -0.197343,-1.2563 -0.384815,-2.3022 -0.562418,-3.1377 -0.177608,-0.8353 -0.335479,-1.5359 -0.473614,-2.1016 -0.124984,-0.5197 -0.240098,-1.0262 -0.345344,-1.5195 -0.10525,-0.4999 -0.157873,-0.8749 -0.157872,-1.1249 -10e-7,-0.5065 0.187471,-0.9373 0.562418,-1.2925 0.374942,-0.3618 0.825533,-0.5427 1.351774,-0.5427 0.519656,0 0.970248,0.1809 1.351775,0.5427 0.381517,0.3552 0.572279,0.786 0.572284,1.2925 m -0.01973,10.903 c -5e-6,0.5 -0.190767,0.9308 -0.572284,1.2926 -0.374949,0.3552 -0.815674,0.5328 -1.322174,0.5328 -0.513085,0 -0.960387,-0.1776 -1.341907,-0.5328 -0.374947,-0.3618 -0.562419,-0.7926 -0.562418,-1.2926 -1e-6,-0.4999 0.187471,-0.9307 0.562418,-1.2925 0.38152,-0.3684 0.828822,-0.5526 1.341907,-0.5526 0.5065,0 0.947225,0.1842 1.322174,0.5526 0.381517,0.3618 0.572279,0.7926 0.572284,1.2925"
         style="font-weight:bold;font-family:Georgia;-inkscape-font-specification:Georgia Bold"
         id="path3695" />
    </g>
  </g>
</svg>
