<?xml version="1.0" encoding="UTF-8" standalone="no"?>
<!-- Created with Inkscape (http://www.inkscape.org/) -->

<svg
   xmlns:dc="http://purl.org/dc/elements/1.1/"
   xmlns:cc="http://creativecommons.org/ns#"
   xmlns:rdf="http://www.w3.org/1999/02/22-rdf-syntax-ns#"
   xmlns:svg="http://www.w3.org/2000/svg"
   xmlns="http://www.w3.org/2000/svg"
   xmlns:xlink="http://www.w3.org/1999/xlink"
   xmlns:sodipodi="http://sodipodi.sourceforge.net/DTD/sodipodi-0.dtd"
   xmlns:inkscape="http://www.inkscape.org/namespaces/inkscape"
   width="16"
   height="16"
   id="svg2"
   version="1.1"
   inkscape:version="0.47pre3 r22311"
   sodipodi:docname="www_16.svg"
   inkscape:export-filename="/Users/gerdbartelt/Documents/Fakturama/com.sebulli.fakturama/icons/www_16.png"
   inkscape:export-xdpi="90"
   inkscape:export-ydpi="90">
  <defs
     id="defs4">
    <linearGradient
       id="linearGradient3743">
      <stop
         style="stop-color:#ffffff;stop-opacity:1;"
         offset="0"
         id="stop3745" />
      <stop
         style="stop-color:#aeaeae;stop-opacity:1;"
         offset="1"
         id="stop3747" />
    </linearGradient>
    <linearGradient
       id="linearGradient3876">
      <stop
         style="stop-color:#f0f3f8;stop-opacity:1;"
         offset="0"
         id="stop3878" />
      <stop
         id="stop3727"
         offset="0.43954355"
         style="stop-color:#456697;stop-opacity:1;" />
      <stop
         style="stop-color:#324b6f;stop-opacity:1;"
         offset="0.86409569"
         id="stop3729" />
      <stop
         style="stop-color:#1f3047;stop-opacity:1;"
         offset="1"
         id="stop3880" />
    </linearGradient>
    <linearGradient
       id="linearGradient3935">
      <stop
         style="stop-color:#43a041;stop-opacity:1;"
         offset="0"
         id="stop3937" />
      <stop
         style="stop-color:#1e491d;stop-opacity:1;"
         offset="1"
         id="stop3939" />
    </linearGradient>
    <linearGradient
       id="linearGradient4301">
      <stop
         style="stop-color:#726c4c;stop-opacity:1;"
         offset="0"
         id="stop4303" />
      <stop
         style="stop-color:#cac6b0;stop-opacity:1;"
         offset="1"
         id="stop4305" />
    </linearGradient>
    <linearGradient
       id="linearGradient4293">
      <stop
         style="stop-color:#0e0072;stop-opacity:1;"
         offset="0"
         id="stop4295" />
      <stop
         style="stop-color:#020011;stop-opacity:1;"
         offset="1"
         id="stop4297" />
    </linearGradient>
    <linearGradient
       id="linearGradient3746">
      <stop
         style="stop-color:#a88400;stop-opacity:1;"
         offset="0"
         id="stop3748" />
      <stop
         style="stop-color:#8c6e00;stop-opacity:1;"
         offset="1"
         id="stop3750" />
    </linearGradient>
    <linearGradient
       id="linearGradient3736">
      <stop
         style="stop-color:#f9c400;stop-opacity:1;"
         offset="0"
         id="stop3738" />
      <stop
         style="stop-color:#c69c00;stop-opacity:1;"
         offset="1"
         id="stop3740" />
    </linearGradient>
    <linearGradient
       id="linearGradient3728">
      <stop
         style="stop-color:#937300;stop-opacity:1;"
         offset="0"
         id="stop3730" />
      <stop
         style="stop-color:#ffd84a;stop-opacity:1;"
         offset="1"
         id="stop3732" />
    </linearGradient>
    <linearGradient
       id="linearGradient3627">
      <stop
         style="stop-color:#c8c8c8;stop-opacity:1;"
         offset="0"
         id="stop3629" />
      <stop
         id="stop3635"
         offset="1"
         style="stop-color:#ffffff;stop-opacity:1;" />
    </linearGradient>
    <linearGradient
       id="linearGradient3594">
      <stop
         id="stop3602"
         offset="0"
         style="stop-color:#e1e1e1;stop-opacity:1;" />
      <stop
         style="stop-color:#5f5f5f;stop-opacity:1;"
         offset="1"
         id="stop3598" />
    </linearGradient>
    <inkscape:perspective
       sodipodi:type="inkscape:persp3d"
       inkscape:vp_x="0 : 526.18109 : 1"
       inkscape:vp_y="0 : 1000 : 0"
       inkscape:vp_z="744.09448 : 526.18109 : 1"
       inkscape:persp3d-origin="372.04724 : 350.78739 : 1"
       id="perspective10" />
    <inkscape:perspective
       id="perspective3645"
       inkscape:persp3d-origin="0.5 : 0.33333333 : 1"
       inkscape:vp_z="1 : 0.5 : 1"
       inkscape:vp_y="0 : 1000 : 0"
       inkscape:vp_x="0 : 0.5 : 1"
       sodipodi:type="inkscape:persp3d" />
    <linearGradient
       id="linearGradient3594-9">
      <stop
         id="stop3602-3"
         offset="0"
         style="stop-color:#ffffff;stop-opacity:0.98431373;" />
      <stop
         style="stop-color:#989898;stop-opacity:0.97254902;"
         offset="1"
         id="stop3598-8" />
    </linearGradient>
    <linearGradient
       inkscape:collect="always"
       xlink:href="#linearGradient3627-2"
       id="linearGradient3633-0"
       x1="0.5"
       y1="37.5"
       x2="15.5"
       y2="7.5"
       gradientUnits="userSpaceOnUse" />
    <linearGradient
       id="linearGradient3627-2">
      <stop
         style="stop-color:#ffffff;stop-opacity:1;"
         offset="0"
         id="stop3629-4" />
      <stop
         id="stop3635-8"
         offset="0.5"
         style="stop-color:#d9d9d9;stop-opacity:1;" />
      <stop
         style="stop-color:#ffffff;stop-opacity:1;"
         offset="1"
         id="stop3631-3" />
    </linearGradient>
    <inkscape:perspective
       id="perspective3794"
       inkscape:persp3d-origin="0.5 : 0.33333333 : 1"
       inkscape:vp_z="1 : 0.5 : 1"
       inkscape:vp_y="0 : 1000 : 0"
       inkscape:vp_x="0 : 0.5 : 1"
       sodipodi:type="inkscape:persp3d" />
    <inkscape:perspective
       id="perspective3831"
       inkscape:persp3d-origin="0.5 : 0.33333333 : 1"
       inkscape:vp_z="1 : 0.5 : 1"
       inkscape:vp_y="0 : 1000 : 0"
       inkscape:vp_x="0 : 0.5 : 1"
       sodipodi:type="inkscape:persp3d" />
    <inkscape:perspective
       id="perspective3859"
       inkscape:persp3d-origin="0.5 : 0.33333333 : 1"
       inkscape:vp_z="1 : 0.5 : 1"
       inkscape:vp_y="0 : 1000 : 0"
       inkscape:vp_x="0 : 0.5 : 1"
       sodipodi:type="inkscape:persp3d" />
    <inkscape:perspective
       id="perspective3884"
       inkscape:persp3d-origin="0.5 : 0.33333333 : 1"
       inkscape:vp_z="1 : 0.5 : 1"
       inkscape:vp_y="0 : 1000 : 0"
       inkscape:vp_x="0 : 0.5 : 1"
       sodipodi:type="inkscape:persp3d" />
    <inkscape:perspective
       id="perspective3913"
       inkscape:persp3d-origin="0.5 : 0.33333333 : 1"
       inkscape:vp_z="1 : 0.5 : 1"
       inkscape:vp_y="0 : 1000 : 0"
       inkscape:vp_x="0 : 0.5 : 1"
       sodipodi:type="inkscape:persp3d" />
    <inkscape:perspective
       id="perspective3671"
       inkscape:persp3d-origin="0.5 : 0.33333333 : 1"
       inkscape:vp_z="1 : 0.5 : 1"
       inkscape:vp_y="0 : 1000 : 0"
       inkscape:vp_x="0 : 0.5 : 1"
       sodipodi:type="inkscape:persp3d" />
    <inkscape:perspective
       id="perspective3696"
       inkscape:persp3d-origin="0.5 : 0.33333333 : 1"
       inkscape:vp_z="1 : 0.5 : 1"
       inkscape:vp_y="0 : 1000 : 0"
       inkscape:vp_x="0 : 0.5 : 1"
       sodipodi:type="inkscape:persp3d" />
    <inkscape:perspective
       id="perspective3719"
       inkscape:persp3d-origin="0.5 : 0.33333333 : 1"
       inkscape:vp_z="1 : 0.5 : 1"
       inkscape:vp_y="0 : 1000 : 0"
       inkscape:vp_x="0 : 0.5 : 1"
       sodipodi:type="inkscape:persp3d" />
    <inkscape:perspective
       id="perspective3699"
       inkscape:persp3d-origin="0.5 : 0.33333333 : 1"
       inkscape:vp_z="1 : 0.5 : 1"
       inkscape:vp_y="0 : 1000 : 0"
       inkscape:vp_x="0 : 0.5 : 1"
       sodipodi:type="inkscape:persp3d" />
    <inkscape:perspective
       id="perspective3730"
       inkscape:persp3d-origin="0.5 : 0.33333333 : 1"
       inkscape:vp_z="1 : 0.5 : 1"
       inkscape:vp_y="0 : 1000 : 0"
       inkscape:vp_x="0 : 0.5 : 1"
       sodipodi:type="inkscape:persp3d" />
    <radialGradient
       inkscape:collect="always"
       xlink:href="#linearGradient3594-8"
       id="radialGradient3604-3"
       cx="33.5"
       cy="1010.9872"
       fx="33.5"
       fy="1010.9872"
       r="5.5"
       gradientTransform="matrix(1,0,0,1.4545437,0,-459.66287)"
       gradientUnits="userSpaceOnUse" />
    <linearGradient
       id="linearGradient3594-8">
      <stop
         id="stop3602-0"
         offset="0"
         style="stop-color:#e1e1e1;stop-opacity:0.98431373;" />
      <stop
         style="stop-color:#5f5f5f;stop-opacity:0.97254902;"
         offset="1"
         id="stop3598-2" />
    </linearGradient>
    <inkscape:perspective
       id="perspective3707"
       inkscape:persp3d-origin="0.5 : 0.33333333 : 1"
       inkscape:vp_z="1 : 0.5 : 1"
       inkscape:vp_y="0 : 1000 : 0"
       inkscape:vp_x="0 : 0.5 : 1"
       sodipodi:type="inkscape:persp3d" />
    <inkscape:perspective
       id="perspective3707-9"
       inkscape:persp3d-origin="0.5 : 0.33333333 : 1"
       inkscape:vp_z="1 : 0.5 : 1"
       inkscape:vp_y="0 : 1000 : 0"
       inkscape:vp_x="0 : 0.5 : 1"
       sodipodi:type="inkscape:persp3d" />
    <inkscape:perspective
       id="perspective3848"
       inkscape:persp3d-origin="0.5 : 0.33333333 : 1"
       inkscape:vp_z="1 : 0.5 : 1"
       inkscape:vp_y="0 : 1000 : 0"
       inkscape:vp_x="0 : 0.5 : 1"
       sodipodi:type="inkscape:persp3d" />
    <linearGradient
       id="linearGradient3736-0">
      <stop
         style="stop-color:#f9c400;stop-opacity:1;"
         offset="0"
         id="stop3738-2" />
      <stop
         style="stop-color:#c69c00;stop-opacity:1;"
         offset="1"
         id="stop3740-4" />
    </linearGradient>
    <linearGradient
       id="linearGradient3728-3">
      <stop
         style="stop-color:#937300;stop-opacity:1;"
         offset="0"
         id="stop3730-9" />
      <stop
         style="stop-color:#ffd84a;stop-opacity:1;"
         offset="1"
         id="stop3732-0" />
    </linearGradient>
    <linearGradient
       id="linearGradient3746-2">
      <stop
         style="stop-color:#a88400;stop-opacity:1;"
         offset="0"
         id="stop3748-2" />
      <stop
         style="stop-color:#8c6e00;stop-opacity:1;"
         offset="1"
         id="stop3750-7" />
    </linearGradient>
    <inkscape:perspective
       id="perspective3967"
       inkscape:persp3d-origin="0.5 : 0.33333333 : 1"
       inkscape:vp_z="1 : 0.5 : 1"
       inkscape:vp_y="0 : 1000 : 0"
       inkscape:vp_x="0 : 0.5 : 1"
       sodipodi:type="inkscape:persp3d" />
    <inkscape:perspective
       id="perspective2954"
       inkscape:persp3d-origin="0.5 : 0.33333333 : 1"
       inkscape:vp_z="1 : 0.5 : 1"
       inkscape:vp_y="0 : 1000 : 0"
       inkscape:vp_x="0 : 0.5 : 1"
       sodipodi:type="inkscape:persp3d" />
    <inkscape:perspective
       id="perspective3771"
       inkscape:persp3d-origin="0.5 : 0.33333333 : 1"
       inkscape:vp_z="1 : 0.5 : 1"
       inkscape:vp_y="0 : 1000 : 0"
       inkscape:vp_x="0 : 0.5 : 1"
       sodipodi:type="inkscape:persp3d" />
    <inkscape:perspective
       id="perspective3809"
       inkscape:persp3d-origin="0.5 : 0.33333333 : 1"
       inkscape:vp_z="1 : 0.5 : 1"
       inkscape:vp_y="0 : 1000 : 0"
       inkscape:vp_x="0 : 0.5 : 1"
       sodipodi:type="inkscape:persp3d" />
    <inkscape:perspective
       id="perspective3860"
       inkscape:persp3d-origin="0.5 : 0.33333333 : 1"
       inkscape:vp_z="1 : 0.5 : 1"
       inkscape:vp_y="0 : 1000 : 0"
       inkscape:vp_x="0 : 0.5 : 1"
       sodipodi:type="inkscape:persp3d" />
    <inkscape:perspective
       id="perspective3894"
       inkscape:persp3d-origin="0.5 : 0.33333333 : 1"
       inkscape:vp_z="1 : 0.5 : 1"
       inkscape:vp_y="0 : 1000 : 0"
       inkscape:vp_x="0 : 0.5 : 1"
       sodipodi:type="inkscape:persp3d" />
    <inkscape:perspective
       id="perspective4049"
       inkscape:persp3d-origin="0.5 : 0.33333333 : 1"
       inkscape:vp_z="1 : 0.5 : 1"
       inkscape:vp_y="0 : 1000 : 0"
       inkscape:vp_x="0 : 0.5 : 1"
       sodipodi:type="inkscape:persp3d" />
    <inkscape:perspective
       id="perspective4136"
       inkscape:persp3d-origin="0.5 : 0.33333333 : 1"
       inkscape:vp_z="1 : 0.5 : 1"
       inkscape:vp_y="0 : 1000 : 0"
       inkscape:vp_x="0 : 0.5 : 1"
       sodipodi:type="inkscape:persp3d" />
    <inkscape:perspective
       id="perspective4164"
       inkscape:persp3d-origin="0.5 : 0.33333333 : 1"
       inkscape:vp_z="1 : 0.5 : 1"
       inkscape:vp_y="0 : 1000 : 0"
       inkscape:vp_x="0 : 0.5 : 1"
       sodipodi:type="inkscape:persp3d" />
    <inkscape:perspective
       id="perspective4218"
       inkscape:persp3d-origin="0.5 : 0.33333333 : 1"
       inkscape:vp_z="1 : 0.5 : 1"
       inkscape:vp_y="0 : 1000 : 0"
       inkscape:vp_x="0 : 0.5 : 1"
       sodipodi:type="inkscape:persp3d" />
    <linearGradient
       inkscape:collect="always"
       xlink:href="#linearGradient4293"
       id="linearGradient4299"
       x1="-24.780411"
       y1="952.07831"
       x2="-24.780411"
       y2="964.60394"
       gradientUnits="userSpaceOnUse" />
    <radialGradient
       inkscape:collect="always"
       xlink:href="#linearGradient4301"
       id="radialGradient4307"
       cx="-12.274329"
       cy="956.11053"
       fx="-12.274329"
       fy="956.11053"
       r="14.968102"
       gradientTransform="matrix(1,0,0,0.60503283,0,377.63227)"
       gradientUnits="userSpaceOnUse" />
    <inkscape:perspective
       id="perspective4323"
       inkscape:persp3d-origin="0.5 : 0.33333333 : 1"
       inkscape:vp_z="1 : 0.5 : 1"
       inkscape:vp_y="0 : 1000 : 0"
       inkscape:vp_x="0 : 0.5 : 1"
       sodipodi:type="inkscape:persp3d" />
    <radialGradient
       inkscape:collect="always"
       xlink:href="#linearGradient4301-3"
       id="radialGradient4307-8"
       cx="-12.274329"
       cy="956.11053"
       fx="-12.274329"
       fy="956.11053"
       r="14.968102"
       gradientTransform="matrix(1,0,0,0.60503283,0,377.63227)"
       gradientUnits="userSpaceOnUse" />
    <linearGradient
       id="linearGradient4301-3">
      <stop
         style="stop-color:#726c4c;stop-opacity:1;"
         offset="0"
         id="stop4303-5" />
      <stop
         style="stop-color:#cac6b0;stop-opacity:1;"
         offset="1"
         id="stop4305-2" />
    </linearGradient>
    <linearGradient
       inkscape:collect="always"
       xlink:href="#linearGradient4293-6"
       id="linearGradient4299-2"
       x1="-24.780411"
       y1="952.07831"
       x2="-24.780411"
       y2="964.60394"
       gradientUnits="userSpaceOnUse" />
    <linearGradient
       id="linearGradient4293-6">
      <stop
         style="stop-color:#0e0072;stop-opacity:1;"
         offset="0"
         id="stop4295-6" />
      <stop
         style="stop-color:#020011;stop-opacity:1;"
         offset="1"
         id="stop4297-7" />
    </linearGradient>
    <linearGradient
       inkscape:collect="always"
       xlink:href="#linearGradient4293-6"
       id="linearGradient4376"
       gradientUnits="userSpaceOnUse"
       x1="-24.780411"
       y1="952.07831"
       x2="-24.780411"
       y2="964.60394"
       gradientTransform="translate(-5.7810267,-21.870729)" />
    <radialGradient
       inkscape:collect="always"
       xlink:href="#linearGradient4301-3"
       id="radialGradient4379"
       gradientUnits="userSpaceOnUse"
       gradientTransform="matrix(1,0,0,0.60503283,-5.7810267,-648.60066)"
       cx="-12.274329"
       cy="956.11053"
       fx="-12.274329"
       fy="956.11053"
       r="14.968102" />
    <inkscape:perspective
       id="perspective4390"
       inkscape:persp3d-origin="0.5 : 0.33333333 : 1"
       inkscape:vp_z="1 : 0.5 : 1"
       inkscape:vp_y="0 : 1000 : 0"
       inkscape:vp_x="0 : 0.5 : 1"
       sodipodi:type="inkscape:persp3d" />
    <inkscape:perspective
       id="perspective3073"
       inkscape:persp3d-origin="0.5 : 0.33333333 : 1"
       inkscape:vp_z="1 : 0.5 : 1"
       inkscape:vp_y="0 : 1000 : 0"
       inkscape:vp_x="0 : 0.5 : 1"
       sodipodi:type="inkscape:persp3d" />
    <inkscape:perspective
       id="perspective3095"
       inkscape:persp3d-origin="0.5 : 0.33333333 : 1"
       inkscape:vp_z="1 : 0.5 : 1"
       inkscape:vp_y="0 : 1000 : 0"
       inkscape:vp_x="0 : 0.5 : 1"
       sodipodi:type="inkscape:persp3d" />
    <inkscape:perspective
       id="perspective3894-0"
       inkscape:persp3d-origin="0.5 : 0.33333333 : 1"
       inkscape:vp_z="1 : 0.5 : 1"
       inkscape:vp_y="0 : 1000 : 0"
       inkscape:vp_x="0 : 0.5 : 1"
       sodipodi:type="inkscape:persp3d" />
    <inkscape:perspective
       id="perspective3916"
       inkscape:persp3d-origin="0.5 : 0.33333333 : 1"
       inkscape:vp_z="1 : 0.5 : 1"
       inkscape:vp_y="0 : 1000 : 0"
       inkscape:vp_x="0 : 0.5 : 1"
       sodipodi:type="inkscape:persp3d" />
    <radialGradient
       inkscape:collect="always"
       xlink:href="#linearGradient3935"
       id="radialGradient3941"
       cx="14.641243"
       cy="1016.3128"
       fx="14.641243"
       fy="1016.3128"
       r="10"
       gradientUnits="userSpaceOnUse"
       gradientTransform="translate(-12,27)" />
    <inkscape:perspective
       id="perspective3065"
       inkscape:persp3d-origin="0.5 : 0.33333333 : 1"
       inkscape:vp_z="1 : 0.5 : 1"
       inkscape:vp_y="0 : 1000 : 0"
       inkscape:vp_x="0 : 0.5 : 1"
       sodipodi:type="inkscape:persp3d" />
    <radialGradient
       inkscape:collect="always"
       xlink:href="#linearGradient3935-9"
       id="radialGradient3941-7"
       cx="14.641243"
       cy="1016.3128"
       fx="14.641243"
       fy="1016.3128"
       r="10"
       gradientUnits="userSpaceOnUse"
       gradientTransform="translate(-11,27)" />
    <linearGradient
       id="linearGradient3935-9">
      <stop
         style="stop-color:#43a041;stop-opacity:1;"
         offset="0"
         id="stop3937-3" />
      <stop
         style="stop-color:#1e491d;stop-opacity:1;"
         offset="1"
         id="stop3939-8" />
    </linearGradient>
    <inkscape:perspective
       id="perspective3103"
       inkscape:persp3d-origin="0.5 : 0.33333333 : 1"
       inkscape:vp_z="1 : 0.5 : 1"
       inkscape:vp_y="0 : 1000 : 0"
       inkscape:vp_x="0 : 0.5 : 1"
       sodipodi:type="inkscape:persp3d" />
    <inkscape:perspective
       id="perspective3094"
       inkscape:persp3d-origin="0.5 : 0.33333333 : 1"
       inkscape:vp_z="1 : 0.5 : 1"
       inkscape:vp_y="0 : 1000 : 0"
       inkscape:vp_x="0 : 0.5 : 1"
       sodipodi:type="inkscape:persp3d" />
    <radialGradient
       inkscape:collect="always"
       xlink:href="#linearGradient3935-3"
       id="radialGradient3941-79"
       cx="14.641243"
       cy="1016.3128"
       fx="14.641243"
       fy="1016.3128"
       r="10"
       gradientUnits="userSpaceOnUse"
       gradientTransform="translate(-11,27)" />
    <linearGradient
       id="linearGradient3935-3">
      <stop
         style="stop-color:#702d2d;stop-opacity:1;"
         offset="0"
         id="stop3937-8" />
      <stop
         style="stop-color:#f21f1f;stop-opacity:1;"
         offset="1"
         id="stop3939-0" />
    </linearGradient>
    <radialGradient
       r="10"
       fy="1016.3128"
       fx="14.641243"
       cy="1016.3128"
       cx="14.641243"
       gradientTransform="translate(-23,28)"
       gradientUnits="userSpaceOnUse"
       id="radialGradient3103"
       xlink:href="#linearGradient3935-3"
       inkscape:collect="always" />
    <radialGradient
       inkscape:collect="always"
       xlink:href="#linearGradient3935-3"
       id="radialGradient3897"
       gradientUnits="userSpaceOnUse"
       gradientTransform="translate(-23,28)"
       cx="28.5"
       cy="1013.8622"
       fx="28.5"
       fy="1013.8622"
       r="10" />
    <inkscape:perspective
       id="perspective3907"
       inkscape:persp3d-origin="0.5 : 0.33333333 : 1"
       inkscape:vp_z="1 : 0.5 : 1"
       inkscape:vp_y="0 : 1000 : 0"
       inkscape:vp_x="0 : 0.5 : 1"
       sodipodi:type="inkscape:persp3d" />
    <radialGradient
       inkscape:collect="always"
       xlink:href="#linearGradient3935-3-8"
       id="radialGradient3897-4"
       gradientUnits="userSpaceOnUse"
       gradientTransform="translate(-23,28)"
       cx="28.5"
       cy="1013.8622"
       fx="28.5"
       fy="1013.8622"
       r="10" />
    <linearGradient
       id="linearGradient3935-3-8">
      <stop
         style="stop-color:#a09641;stop-opacity:1;"
         offset="0"
         id="stop3937-8-3" />
      <stop
         style="stop-color:#f0f338;stop-opacity:1;"
         offset="1"
         id="stop3939-0-9" />
    </linearGradient>
    <inkscape:perspective
       id="perspective3945"
       inkscape:persp3d-origin="0.5 : 0.33333333 : 1"
       inkscape:vp_z="1 : 0.5 : 1"
       inkscape:vp_y="0 : 1000 : 0"
       inkscape:vp_x="0 : 0.5 : 1"
       sodipodi:type="inkscape:persp3d" />
    <radialGradient
       inkscape:collect="always"
       xlink:href="#linearGradient3935-3"
       id="radialGradient3094"
       gradientUnits="userSpaceOnUse"
       gradientTransform="translate(-23,28)"
       cx="28.5"
       cy="1013.8622"
       fx="28.5"
       fy="1013.8622"
       r="10" />
    <inkscape:perspective
       id="perspective3900"
       inkscape:persp3d-origin="0.5 : 0.33333333 : 1"
       inkscape:vp_z="1 : 0.5 : 1"
       inkscape:vp_y="0 : 1000 : 0"
       inkscape:vp_x="0 : 0.5 : 1"
       sodipodi:type="inkscape:persp3d" />
    <inkscape:perspective
       id="perspective3900-9"
       inkscape:persp3d-origin="0.5 : 0.33333333 : 1"
       inkscape:vp_z="1 : 0.5 : 1"
       inkscape:vp_y="0 : 1000 : 0"
       inkscape:vp_x="0 : 0.5 : 1"
       sodipodi:type="inkscape:persp3d" />
    <inkscape:perspective
       id="perspective3900-8"
       inkscape:persp3d-origin="0.5 : 0.33333333 : 1"
       inkscape:vp_z="1 : 0.5 : 1"
       inkscape:vp_y="0 : 1000 : 0"
       inkscape:vp_x="0 : 0.5 : 1"
       sodipodi:type="inkscape:persp3d" />
    <inkscape:perspective
       id="perspective3941"
       inkscape:persp3d-origin="0.5 : 0.33333333 : 1"
       inkscape:vp_z="1 : 0.5 : 1"
       inkscape:vp_y="0 : 1000 : 0"
       inkscape:vp_x="0 : 0.5 : 1"
       sodipodi:type="inkscape:persp3d" />
    <radialGradient
       inkscape:collect="always"
       xlink:href="#linearGradient3876-4"
       id="radialGradient3882-2"
       cx="-9.5"
       cy="-2.9948714"
       fx="-9.5"
       fy="-2.9948714"
       r="7.2409058"
       gradientTransform="matrix(1,0,0,0.93094787,0,-0.06905213)"
       gradientUnits="userSpaceOnUse" />
    <linearGradient
       id="linearGradient3876-4">
      <stop
         style="stop-color:#9ebdff;stop-opacity:1;"
         offset="0"
         id="stop3878-8" />
      <stop
         style="stop-color:#0042d1;stop-opacity:1;"
         offset="1"
         id="stop3880-3" />
    </linearGradient>
    <inkscape:perspective
       id="perspective4013"
       inkscape:persp3d-origin="0.5 : 0.33333333 : 1"
       inkscape:vp_z="1 : 0.5 : 1"
       inkscape:vp_y="0 : 1000 : 0"
       inkscape:vp_x="0 : 0.5 : 1"
       sodipodi:type="inkscape:persp3d" />
    <inkscape:perspective
       id="perspective4041"
       inkscape:persp3d-origin="0.5 : 0.33333333 : 1"
       inkscape:vp_z="1 : 0.5 : 1"
       inkscape:vp_y="0 : 1000 : 0"
       inkscape:vp_x="0 : 0.5 : 1"
       sodipodi:type="inkscape:persp3d" />
    <radialGradient
       inkscape:collect="always"
       xlink:href="#linearGradient3876"
       id="radialGradient4068"
       gradientUnits="userSpaceOnUse"
       gradientTransform="matrix(-1.1612568,0.59343628,-0.71536461,-1.2058356,-26.73798,-3.0368198)"
       cx="-11.442745"
       cy="-4.4871912"
       fx="-11.442745"
       fy="-4.4871912"
       r="7.240906" />
    <inkscape:perspective
       id="perspective2977"
       inkscape:persp3d-origin="0.5 : 0.33333333 : 1"
       inkscape:vp_z="1 : 0.5 : 1"
       inkscape:vp_y="0 : 1000 : 0"
       inkscape:vp_x="0 : 0.5 : 1"
       sodipodi:type="inkscape:persp3d" />
    <inkscape:perspective
       id="perspective2977-9"
       inkscape:persp3d-origin="0.5 : 0.33333333 : 1"
       inkscape:vp_z="1 : 0.5 : 1"
       inkscape:vp_y="0 : 1000 : 0"
       inkscape:vp_x="0 : 0.5 : 1"
       sodipodi:type="inkscape:persp3d" />
    <inkscape:perspective
       id="perspective3780"
       inkscape:persp3d-origin="0.5 : 0.33333333 : 1"
       inkscape:vp_z="1 : 0.5 : 1"
       inkscape:vp_y="0 : 1000 : 0"
       inkscape:vp_x="0 : 0.5 : 1"
       sodipodi:type="inkscape:persp3d" />
    <inkscape:perspective
       id="perspective3801"
       inkscape:persp3d-origin="0.5 : 0.33333333 : 1"
       inkscape:vp_z="1 : 0.5 : 1"
       inkscape:vp_y="0 : 1000 : 0"
       inkscape:vp_x="0 : 0.5 : 1"
       sodipodi:type="inkscape:persp3d" />
    <inkscape:perspective
       id="perspective3801-4"
       inkscape:persp3d-origin="0.5 : 0.33333333 : 1"
       inkscape:vp_z="1 : 0.5 : 1"
       inkscape:vp_y="0 : 1000 : 0"
       inkscape:vp_x="0 : 0.5 : 1"
       sodipodi:type="inkscape:persp3d" />
    <inkscape:perspective
       id="perspective3801-3"
       inkscape:persp3d-origin="0.5 : 0.33333333 : 1"
       inkscape:vp_z="1 : 0.5 : 1"
       inkscape:vp_y="0 : 1000 : 0"
       inkscape:vp_x="0 : 0.5 : 1"
       sodipodi:type="inkscape:persp3d" />
    <linearGradient
       inkscape:collect="always"
       xlink:href="#linearGradient3743"
       id="linearGradient3751"
       x1="9.5782938"
       y1="1048.663"
       x2="10.731417"
       y2="1050.3569"
       gradientUnits="userSpaceOnUse" />
    <inkscape:perspective
       id="perspective3761"
       inkscape:persp3d-origin="0.5 : 0.33333333 : 1"
       inkscape:vp_z="1 : 0.5 : 1"
       inkscape:vp_y="0 : 1000 : 0"
       inkscape:vp_x="0 : 0.5 : 1"
       sodipodi:type="inkscape:persp3d" />
    <linearGradient
       id="linearGradient3743-9">
      <stop
         style="stop-color:#ffffff;stop-opacity:1;"
         offset="0"
         id="stop3745-3" />
      <stop
         style="stop-color:#aeaeae;stop-opacity:1;"
         offset="1"
         id="stop3747-8" />
    </linearGradient>
    <linearGradient
       gradientTransform="translate(-7.0993455,-1046.969)"
       y2="1050.3569"
       x2="10.731417"
       y1="1048.663"
       x1="9.5782938"
       gradientUnits="userSpaceOnUse"
       id="linearGradient3770"
       xlink:href="#linearGradient3743-9"
       inkscape:collect="always" />
    <linearGradient
       inkscape:collect="always"
       xlink:href="#linearGradient3743-9"
       id="linearGradient3792"
       x1="11.974181"
       y1="1041.9314"
       x2="15.582935"
       y2="1041.9313"
       gradientUnits="userSpaceOnUse" />
    <inkscape:perspective
       id="perspective3802"
       inkscape:persp3d-origin="0.5 : 0.33333333 : 1"
       inkscape:vp_z="1 : 0.5 : 1"
       inkscape:vp_y="0 : 1000 : 0"
       inkscape:vp_x="0 : 0.5 : 1"
       sodipodi:type="inkscape:persp3d" />
    <linearGradient
       inkscape:collect="always"
       xlink:href="#linearGradient3743-4"
       id="linearGradient3751-2"
       x1="2.7967789"
       y1="1046.2505"
       x2="2.7967789"
       y2="1048.9427"
       gradientUnits="userSpaceOnUse" />
    <linearGradient
       id="linearGradient3743-4">
      <stop
         style="stop-color:#ffffff;stop-opacity:1;"
         offset="0"
         id="stop3745-8" />
      <stop
         style="stop-color:#aeaeae;stop-opacity:1;"
         offset="1"
         id="stop3747-3" />
    </linearGradient>
    <linearGradient
       gradientTransform="translate(-7.0993455,-1046.969)"
       y2="1050.3569"
       x2="10.731417"
       y1="1048.663"
       x1="9.5782938"
       gradientUnits="userSpaceOnUse"
       id="linearGradient3811"
       xlink:href="#linearGradient3743-4"
       inkscape:collect="always" />
  </defs>
  <sodipodi:namedview
     id="base"
     pagecolor="#f3f3f3"
     bordercolor="#666666"
     borderopacity="1.0"
     inkscape:pageopacity="0"
     inkscape:pageshadow="2"
     inkscape:zoom="1"
     inkscape:cx="22.588232"
     inkscape:cy="4.6040903"
     inkscape:document-units="px"
     inkscape:current-layer="layer1"
     showgrid="true"
     inkscape:window-width="1327"
     inkscape:window-height="1043"
     inkscape:window-x="549"
     inkscape:window-y="137"
     inkscape:window-maximized="0"
     showguides="true"
     inkscape:guide-bbox="true">
    <inkscape:grid
       type="xygrid"
       id="grid2816"
       empspacing="5"
       visible="true"
       enabled="false"
       snapvisiblegridlinesonly="true"
       originx="0.5px"
       originy="0.5px" />
  </sodipodi:namedview>
  <metadata
     id="metadata7">
    <rdf:RDF>
      <cc:Work
         rdf:about="">
        <dc:format>image/svg+xml</dc:format>
        <dc:type
           rdf:resource="http://purl.org/dc/dcmitype/StillImage" />
        <dc:title />
      </cc:Work>
    </rdf:RDF>
  </metadata>
  <g
     inkscape:label="Ebene 1"
     inkscape:groupmode="layer"
     id="layer1"
     transform="translate(0,-1036.3622)">
    <path
       sodipodi:type="arc"
       style="color:#000000;fill:url(#radialGradient4068);fill-opacity:1;fill-rule:nonzero;stroke:#000000;stroke-width:0.44956996999999999;stroke-miterlimit:4;stroke-opacity:1;stroke-dasharray:none;marker:none;visibility:visible;display:inline;overflow:visible;enable-background:accumulate"
       id="path3102"
       sodipodi:cx="-7.5"
       sodipodi:cy="-1"
       sodipodi:rx="7"
       sodipodi:ry="6.5"
       d="m -0.5,-1 a 7,6.5 0 1 1 -14,0 7,6.5 0 1 1 14,0 z"
       transform="matrix(1.0714398,0,0,1.1544567,16.035877,1045.5127)" />
    <path
       style="color:#000000;fill:#ffffff;fill-opacity:1;fill-rule:nonzero;stroke:none;stroke-width:1px;marker:none;visibility:visible;display:inline;overflow:visible;enable-background:accumulate"
       d="m 2.9157483,1039.7322 c 0.451644,0 -0.046704,-0.027 0.2960184,0.059 0.038294,0.011 0.078931,0 0.1184069,0 0.019736,0 0.041552,-0.011 0.059207,0 0.024964,0.013 0.034241,0.047 0.059208,0.059 0.00311,0 0.174514,0 0.1776105,0 0.024964,-0.013 0.034241,-0.047 0.059208,-0.059 0.017648,-0.011 0.041549,0.011 0.059208,0 0.024965,-0.013 0.034241,-0.047 0.059207,-0.059 0.017648,-0.011 0.041551,0.011 0.059208,0 0.024964,-0.013 0.039471,-0.04 0.059207,-0.059 0.019737,-0.019 0.046727,-0.034 0.059208,-0.059 0.017648,-0.036 -0.027912,-0.091 0,-0.1185 0.013951,-0.014 0.045245,0.014 0.059208,0 0.015889,-0.016 -0.013896,-0.1953 0,-0.237 0.014422,-0.043 0.064211,-0.1506 0.1184071,-0.1776 0.017648,-0.011 0.045246,0.014 0.059207,0 0.01395,-0.014 -0.01395,-0.045 0,-0.059 0.01395,-0.014 0.041552,0.011 0.059208,0 0.024964,-0.013 0.034241,-0.047 0.059207,-0.059 0.017648,-0.011 0.045246,0.014 0.059208,0 0.01395,-0.014 -0.01395,-0.044 0,-0.059 0.01395,-0.014 0.041551,0.011 0.059207,0 0.024964,-0.013 0.034241,-0.047 0.059208,-0.059 0.035302,-0.017 0.0831,0.017 0.1184068,0 0.024965,-0.013 0.032731,-0.05 0.059208,-0.059 0.037445,-0.013 0.078931,0 0.118408,0 0.019736,0 0.041551,0.011 0.059208,0 0.024965,-0.013 0.034241,-0.047 0.059207,-0.059 0.018021,-0.011 0.1509488,0 0.1776115,0 0.043457,0 0.3345817,0.011 0.3552218,0 0.024965,-0.012 0.039471,-0.04 0.059207,-0.059 0.019736,-0.02 0.039471,-0.04 0.059208,-0.059 0.098616,-0.099 0.2432437,-0.2322 0.2960186,-0.3553 0.023326,-0.054 -0.018719,-0.1215 0,-0.1778 0.00622,-0.019 0.041551,0.011 0.059207,0 0.2709522,-0.1355 -0.2512268,0.024 0.1776103,-0.1184 0.033409,-0.011 0.1387087,0 0.1776117,0 0.1381419,0 0.2762834,0 0.4144254,0 0.014068,0 0.2235462,0.011 0.236815,0 0.024964,-0.013 0.034241,-0.048 0.059208,-0.059 0.035302,-0.017 0.083101,0.018 0.1184081,0 0.011337,-0.011 0.2311482,-0.2255 0.236815,-0.2369 0.00877,-0.018 0,-0.04 0,-0.059 0,-0.04 -0.00954,-0.08 0,-0.1185 0.010714,-0.043 0.045245,-0.077 0.059207,-0.1184 0.00622,-0.018 -0.00877,-0.042 0,-0.059 0.01248,-0.024 0.046727,-0.034 0.059208,-0.059 0.017648,-0.036 -0.027912,-0.09 0,-0.1185 0.01395,-0.014 0.05038,0.018 0.059207,0 0.026474,-0.052 0,-0.1185 0,-0.1777 0,-0.019 0,-0.04 0,-0.059 0,-0.02 0.01395,-0.045 0,-0.059 -0.00194,0 -0.1632521,0 -0.1776105,0 -0.236815,0 -0.47363,0 -0.7104448,0 -0.019736,0 -0.039471,0 -0.059208,0 -0.019737,0 -0.041551,-0.011 -0.059208,0 -0.024965,0.013 -0.034241,0.048 -0.059207,0.059 -0.017648,0.011 -0.041552,-0.011 -0.059208,0 -0.024964,0.013 -0.034241,0.047 -0.059207,0.059 -0.017648,0.011 -0.041552,-0.011 -0.059208,0 -0.049929,0.024 -0.068489,0.093 -0.118408,0.1184 -0.035302,0.018 -0.090494,-0.028 -0.118407,0 -0.01395,0.014 0.013951,0.046 0,0.059 -0.01395,0.014 -0.04155,-0.011 -0.059207,0 -0.024964,0.013 -0.034241,0.047 -0.059208,0.059 -0.035302,0.017 -0.090494,-0.028 -0.118408,0 -0.013951,0.014 0.017648,0.05 0,0.059 -0.035302,0.018 -0.083101,-0.017 -0.118407,0 -0.017648,0.011 0.01395,0.044 0,0.059 -0.01395,0.014 -0.04155,-0.011 -0.059207,0 -0.024965,0.013 -0.034241,0.048 -0.059208,0.059 -0.017648,0.011 -0.041551,-0.011 -0.059207,0 -0.024964,0.013 -0.034241,0.048 -0.059208,0.059 -0.017648,0.011 -0.041551,-0.011 -0.059207,0 -0.024964,0.013 -0.034241,0.047 -0.059208,0.059 -0.017648,0.011 -0.045246,-0.014 -0.059208,0 -0.01395,0.014 0.013951,0.045 0,0.059 -0.01395,0.014 -0.045245,-0.014 -0.059208,0 -0.01395,0.014 0,0.04 0,0.059 -0.039471,0.019 -0.076544,0.046 -0.1184069,0.059 -0.018719,0.011 -0.045246,-0.014 -0.059208,0 -0.01395,0.014 0.01395,0.045 0,0.059 -0.027912,0.028 -0.083101,-0.018 -0.118407,0 -0.024964,0.013 -0.034241,0.047 -0.059208,0.059 -0.037833,0.019 -0.1891614,-0.016 -0.2368148,0 -0.4288375,0.143 0.093343,-0.017 -0.1776116,0.1185 -0.023477,0.012 -0.1655073,-0.012 -0.1776103,0 -0.01395,0.014 0.013951,0.044 0,0.059 -0.01395,0.014 -0.041551,-0.011 -0.059208,0 -0.024964,0.013 -0.034241,0.047 -0.059207,0.059 -0.017648,0.011 -0.041551,-0.011 -0.059207,0 -0.049929,0.025 -0.068489,0.093 -0.1184071,0.1185 -0.017648,0.011 -0.045246,-0.014 -0.059207,0 -0.013951,0.014 0.00877,0.042 0,0.059 -0.012483,0.024 -0.046727,0.034 -0.059208,0.059 -0.00877,0.018 0.00877,0.042 0,0.059 -0.1231953,0.2465 0.00406,-0.063 -0.1184071,0.059 -0.01395,0.014 0.01395,0.044 0,0.059 -0.01395,0.014 -0.041551,-0.011 -0.059208,0 -0.024964,0.013 -0.034241,0.047 -0.059207,0.059 -0.035302,0.017 -0.090494,-0.028 -0.118407,0 -0.013951,0.014 0.013951,0.044 0,0.059 -0.013951,0.013 -0.041551,-0.011 -0.059208,0 -0.049929,0.024 -0.068489,0.093 -0.1184081,0.1185 -0.035302,0.017 -0.083101,-0.018 -0.118407,0 -0.031619,0.016 -0.1464422,0.1465 -0.1776114,0.1775 -0.031166,0.031 -0.1618003,0.1462 -0.1776105,0.1778 -0.00877,0.017 0.01395,0.045 0,0.059 -0.013951,0.014 -0.045247,-0.014 -0.059208,0 -0.01395,0.014 0.00622,0.041 0,0.059 -0.1429462,0.4292 0.017067,-0.093 -0.1184081,0.1777 -0.017648,0.036 0.027912,0.09 0,0.1185 -0.013951,0.014 -0.045245,-0.014 -0.059207,0 -0.013951,0.014 0.00877,0.042 0,0.059 -0.01248,0.024 -0.046728,0.034 -0.059208,0.059 -0.00877,0.017 0.00877,0.042 0,0.059 -0.012481,0.024 -0.046727,0.034 -0.059208,0.059 -0.00877,0.017 0,0.04 0,0.059 0,0.1635 -0.00888,0.042 0.4144254,0 z"
       id="path3923" />
    <path
       style="color:#000000;fill:url(#linearGradient3792);fill-opacity:1;fill-rule:nonzero;stroke:none;stroke-width:1px;marker:none;visibility:visible;display:inline;overflow:visible;enable-background:accumulate"
       d="m 9.578587,1037.494 c -0.06907,-0.011 -0.127946,0.014 -0.167412,0.033 0,0.019 0.01395,0.019 0,0.033 -0.01396,0.014 -0.01953,-0.014 -0.03348,0 -0.03121,0.031 -0.03576,0.1029 -0.06697,0.134 -0.01396,0.014 -0.05302,-0.014 -0.06697,0 -0.01395,0.014 0,0.047 0,0.067 l 0,0.469 c 0,0.028 -0.0027,0.3015 0,0.3015 0.01396,0.014 0.05302,-0.014 0.06697,0 0.01395,0.014 -0.01395,0.019 0,0.033 0.01396,0.014 0.04931,-0.011 0.06697,0 0.02496,0.012 0.01375,0.047 0.03348,0.067 0.01973,0.019 0.05448,0.042 0.06697,0.067 0.01061,0.021 -0.01829,0.1568 0,0.1675 0.01392,0.011 0.195484,0 0.234377,0 l 0.468755,0 0.200897,0 c 0.01396,0.014 -0.0087,0.049 0,0.067 0.01249,0.024 0.05813,0.041 0.06697,0.067 0.01249,0.038 -0.01765,0.066 0,0.1008 0.0087,0.017 0.01952,-0.014 0.03348,0 0.0028,0 0,0.2737 0,0.3015 l 0,0.067 c 0,0.019 0.01396,0.053 0,0.067 -0.01396,0.014 -0.01375,0 -0.03348,0 l -0.368307,0 -0.535721,0 c -0.0234,0 -0.276056,-0.013 -0.301342,0 -0.02496,0.012 -0.04049,0.022 -0.06696,0.033 -0.07353,0.024 -0.19002,-0.019 -0.26786,0 -0.04281,0.011 -0.09446,0.047 -0.13393,0.067 -0.03947,0.019 -0.09721,0.042 -0.13393,0.067 -0.02323,0.015 -0.0085,0.055 -0.03348,0.067 -0.01766,0.011 -0.05302,-0.014 -0.06697,0 -0.01395,0.014 0.01395,0.019 0,0.033 -0.01396,0.014 -0.04932,-0.011 -0.06697,0 -0.02496,0.012 -0.04723,0.048 -0.06697,0.067 -0.01973,0.019 -0.0247,0.041 -0.03348,0.067 -0.01018,0.03 0,0.3387 0,0.402 0,0.041 -0.01071,0.2801 0,0.3015 0.01248,0.024 0.021,0.042 0.03348,0.067 0.0088,0.017 0,0.047 0,0.067 l 0,0.033 0,0.3014 0,0.067 c 0,0.019 -0.01395,0.053 0,0.067 0.01396,0.014 0.05302,-0.013 0.06697,0 0.01395,0.014 -0.0088,0.049 0,0.067 0.01248,0.024 0.05448,0.011 0.06697,0.033 0.0088,0.017 -0.0048,0.048 0,0.067 0.01514,0.061 0.03905,0.1117 0.06697,0.1675 0.005,0.011 -0.0092,0.027 0,0.033 -0.05208,0.058 -0.13393,0.1008 -0.167413,0.1674 -0.01019,0.02 0,0.1709 0,0.201 0,0.022 -0.01578,0.051 0,0.067 0.01578,0.016 0.05118,-0.016 0.06697,0 0.01578,0.016 0,0.045 0,0.067 l 0,0.067 c 0,0.4391 0.02118,-0.039 -0.06697,0.4021 -0.01329,0.067 0,0.2646 0,0.335 0,0.022 0.007,0.047 0,0.067 -0.01578,0.047 -0.05718,0.085 -0.06696,0.134 -0.01758,0.088 0,0.2955 0,0.402 0,0.036 -0.0088,0.2504 0,0.268 0.01412,0.028 0.05285,0.039 0.06696,0.067 0.01,0.02 -0.01,0.048 0,0.067 0.07403,0.1482 0.04156,0.02 0.13393,0.067 0.02824,0.014 0.03873,0.052 0.06697,0.067 0.01997,0.011 0.05118,-0.016 0.06697,0 0.01578,0.016 -0.01578,0.051 0,0.067 0.01578,0.016 0.04464,0 0.06697,0 l 0.06696,0 0.40179,0 0.334825,0 c 0.02232,0 0.047,0.011 0.06697,0 0.02823,-0.014 0.03873,-0.052 0.06697,-0.067 0.01997,-0.011 0.05118,0.016 0.06696,0 0.0918,-0.092 0.06697,-0.2211 0.06697,-0.3351 0,-0.1571 -0.01578,0.031 0.06697,-0.134 0.0017,0 0.0017,-0.1974 0,-0.201 -0.01412,-0.028 -0.05285,-0.039 -0.06697,-0.067 -0.01,-0.02 0.01,-0.047 0,-0.067 -0.01412,-0.028 -0.05285,-0.039 -0.06697,-0.067 -0.02104,-0.042 0.02105,-0.2259 0,-0.268 -0.01412,-0.028 -0.05285,-0.039 -0.06696,-0.067 -0.01997,-0.04 0.03157,-0.1028 0,-0.1339 -0.01578,-0.016 -0.05118,0.016 -0.06697,0 -0.01578,-0.016 0,-0.045 0,-0.067 0,-0.022 -0.01,-0.048 0,-0.067 0.01412,-0.028 0.03873,-0.052 0.06697,-0.067 0.01997,-0.011 0.047,0.011 0.06696,0 0.02824,-0.014 0.03702,-0.057 0.06697,-0.067 0.03837,-0.013 0.271957,0 0.334825,0 0.03016,0 0.180515,-0.011 0.200896,0 0.02824,0.014 0.03874,0.052 0.06697,0.067 0.06315,0.031 0.144425,0.025 0.200893,0.067 0.104736,0.078 0.06696,0.2901 0.06696,0.4019 0,0.03 0.01017,0.1807 0,0.201 -0.153237,0.3066 0.02776,-0.2843 -0.13393,0.201 -0.0201,0.06 0.0201,0.1408 0,0.201 -0.01001,0.03 -0.05284,0.039 -0.06696,0.067 -0.01,0.02 0.01,0.047 0,0.067 -0.08329,0.083 -0.04036,0.074 -0.03348,0.067 0.0067,0 -0.0087,0.018 -0.03348,0.067 -0.01413,0.028 -0.05284,0.039 -0.06697,0.067 -0.01,0.02 0,0.044 0,0.067 0,0.047 0.0085,0.3846 0,0.4019 -0.01412,0.028 -0.04946,0.041 -0.06697,0.067 -0.07397,0.111 -0.06697,0.1521 -0.06697,0.268 0,0.031 -0.003,0.332 0,0.335 0.01578,0.016 0.04464,0 0.06697,0 l 0.06697,0 0.535719,0 0.06696,0 c 0.0223,0 0.0512,-0.016 0.06696,0 0.04452,0.045 -0.06794,0.1469 0.06696,0.2009 0.196616,0.078 0.40179,0.134 0.602684,0.201 0.200897,0.067 0.400289,0.1388 0.602686,0.2011 0.08798,0.027 0.177612,0.049 0.267859,0.067 0.02191,0 0.05119,0.016 0.06696,0 0.0158,-0.016 0,-0.045 0,-0.067 l 0,-0.536 0,-0.067 c 0,-0.022 -0.0158,-0.051 0,-0.067 0.0158,-0.016 0.05119,0.017 0.06696,0 0.0158,-0.016 0,-0.044 0,-0.067 0,-0.017 0.0022,-0.1988 0,-0.201 -0.0158,-0.016 -0.04699,0.011 -0.06696,0 -0.08276,-0.042 -0.07381,-0.061 -0.06696,-0.067 l 0.06696,0 0.468754,0 0.13393,0 c -8.4e-4,0.027 0,0.056 0,0.067 0,0.021 0.0024,0.2346 0,0.2346 -0.01397,0.014 -0.01952,-0.014 -0.03348,0 -0.01396,0.014 0.01395,0.053 0,0.067 -0.01397,0.014 -0.05818,-0.017 -0.06696,0 -2.25e-4,5e-4 -0.01027,0.3147 0,0.335 0.01249,0.025 0.05447,0.043 0.06696,0.067 0.0076,0.015 0,0.2035 0,0.2345 0,0.019 0.01395,0.053 0,0.067 -0.02793,0.028 -0.09864,-0.017 -0.133932,0 -0.02498,0.012 -0.04049,0.057 -0.06696,0.067 -0.03746,0.012 -0.06516,-0.018 -0.100447,0 -0.01764,0.011 0,0.013 0,0.033 l 0,0.5024 c 0,0.019 -0.01395,0.019 0,0.033 l 0.301342,0 0.267859,0 0.06696,0 c 0.01973,0 0.04933,0.011 0.06696,0 0.04991,-0.025 0.084,-0.077 0.133932,-0.1007 0.01765,-0.011 0.01952,0.014 0.03348,0 0.01266,-0.013 -0.01089,-0.2013 0,-0.2345 0.01397,-0.041 0.053,-0.092 0.06696,-0.134 0.01088,-0.032 -0.01267,-0.2216 0,-0.2345 0.01397,-0.014 0.04783,0 0.06696,0 0.06054,-0.014 0.111591,-0.039 0.167414,-0.067 0.04991,-0.026 0.084,-0.076 0.133929,-0.1007 0.01766,-0.011 0.01585,0.011 0.03348,0 0.02498,-0.012 0.042,-0.053 0.06696,-0.067 0.01766,-0.011 0.04783,0 0.06696,0 0.06052,-0.014 0.105858,-0.057 0.167412,-0.067 0.0584,-0.011 0.141689,0 0.200896,0 0.03946,0 0.06513,0.017 0.100448,0 0.01764,-0.011 -0.0064,-0.048 0,-0.067 0.068,-0.2045 0.06696,-0.033 0.06696,-0.1675 l 0,-0.1675 c 0.01973,0 0,-0.047 0,-0.067 l 0,-0.067 0,-0.2346 0,-0.5694 c 0,-0.014 -0.002,-0.201 0,-0.201 0.01397,-0.014 0.04933,0.011 0.06696,0 0.0499,-0.025 0.05052,-0.076 0.100447,-0.1007 0.01531,-0.011 0.326339,0 0.368306,0 0.01973,0 0.053,0.014 0.06696,0 0.01395,-0.014 -0.0064,-0.048 0,-0.067 0.0253,-0.076 0.0233,-0.041 0.03348,-0.067 0.01973,0 0,-0.047 0,-0.067 l 0,-0.1007 0,-0.067 0,-0.1008 c 0.01973,0 0.0086,-0.049 0,-0.067 -0.01249,-0.024 -0.02099,-0.043 -0.03348,-0.067 -0.07289,-0.1456 0.164091,0.064 -0.06696,-0.1675 0,-0.039 0.01249,-0.097 0,-0.134 -0.01074,-0.032 -0.04834,-0.039 -0.06696,-0.067 0.01973,0 0,-0.014 0,-0.033 0,-0.039 0.01765,-0.099 0,-0.134 -0.0086,-0.017 -0.053,0.014 -0.06696,0 -0.02962,-0.03 0.02962,-0.1375 0,-0.1675 -0.01397,-0.014 -0.01952,0.014 -0.03348,0 -0.0024,0 0,-0.2131 0,-0.2345 0,-0.1577 0.01196,0.013 -0.06696,-0.067 -0.01267,-0.013 0.01088,-0.2024 0,-0.2346 -0.01397,-0.042 -0.02283,-0.134 -0.06696,-0.134 8.87e-4,-0.062 -0.03156,-0.1087 -0.06696,-0.134 -0.0091,0.011 -0.04723,0.011 -0.06696,-0.033 -0.01763,-0.035 0.01765,-0.065 0,-0.1008 -0.02498,-0.049 -0.207656,0.1139 -0.100447,-0.134 -0.02792,-0.028 0.02792,-0.073 0,-0.1007 -0.03062,-0.031 -0.05975,-0.042 -0.06696,-0.033 -0.0022,0.012 -0.02077,0.059 -0.06696,-0.033 -0.01763,-0.035 0.02792,-0.1062 0,-0.134 -0.01397,-0.014 -0.01952,0.014 -0.03348,0 -0.02962,-0.03 0.02962,-0.1374 0,-0.1675 -0.01397,-0.014 -0.053,0.014 -0.06696,0 -0.02792,-0.029 0.02792,-0.1061 0,-0.134 -0.01397,-0.014 -0.053,0.014 -0.06696,0 -0.01396,-0.014 0.01395,-0.019 0,-0.033 -0.01397,-0.014 -0.053,0.014 -0.06696,0 -0.02792,-0.028 0.02792,-0.1061 0,-0.134 -0.01397,-0.014 -0.01585,0.011 -0.03348,0 -0.0499,-0.026 -0.084,-0.076 -0.13393,-0.1008 -0.01765,-0.011 -0.053,0.014 -0.06696,0 -0.01395,-0.014 0.0086,-0.049 0,-0.067 -0.02499,-0.049 -0.07549,-0.083 -0.100448,-0.134 -0.0086,-0.017 0.01395,-0.019 0,-0.033 -0.01397,-0.014 -0.053,0.014 -0.06696,0 -0.01396,-0.014 0.0086,-0.049 0,-0.067 -0.01249,-0.024 -0.05448,-0.043 -0.06696,-0.067 -0.01763,-0.036 0.02792,-0.1062 0,-0.134 -0.01397,-0.014 -0.053,0.014 -0.06696,0 -0.01395,-0.014 0.0086,-0.016 0,-0.033 -0.12323,-0.2462 0.02207,0.056 -0.100447,-0.067 -0.01395,-0.014 0.01395,-0.052 0,-0.067 -0.01397,-0.013 -0.053,0.014 -0.06696,0 -0.01395,-0.013 0.01395,-0.052 0,-0.067 -0.01397,-0.014 -0.053,0.014 -0.06696,0 -0.01396,-0.014 0.0086,-0.017 0,-0.033 -0.03671,-0.074 -0.14488,-0.1072 -0.167413,-0.201 -0.01395,-0.014 0.01395,-0.019 0,-0.033 -0.01397,-0.014 -0.053,0.014 -0.06696,0 -0.01395,-0.014 0.01395,-0.052 0,-0.067 -0.01397,-0.014 -0.053,0.014 -0.06696,0 -0.03063,-0.03 -0.0077,-0.06 0,-0.067 0.01187,0 0.05893,-0.02 -0.03348,-0.067 -0.01766,-0.011 -0.053,0.014 -0.06696,0 -0.03122,-0.031 -0.03578,-0.07 -0.06696,-0.1008 -0.01397,-0.013 -0.04933,0.011 -0.06696,0 -0.0499,-0.026 -0.05052,-0.1093 -0.100449,-0.134 -0.01766,-0.011 -0.04933,0.011 -0.06696,0 -0.02498,-0.012 -0.042,-0.054 -0.06696,-0.067 -0.01766,-0.011 -0.01952,0.014 -0.03348,0 -0.01199,-0.012 -0.02383,-0.018 -0.03348,-0.033 -0.01304,-8e-4 -0.02652,0.011 -0.03348,0 -0.01395,-0.014 0.01395,-0.052 0,-0.067 -0.01397,-0.014 -0.053,0.014 -0.06696,0 -0.01396,-0.014 0.01395,-0.052 0,-0.067 -0.01397,-0.014 -0.04933,0.011 -0.06696,0 -0.02498,-0.012 -0.04201,-0.053 -0.06696,-0.067 -0.01765,-0.011 -0.01585,0.011 -0.03348,0 -0.02499,-0.012 -0.04201,-0.02 -0.06696,-0.033 -0.01765,-0.011 -0.04933,0.011 -0.06696,0 -0.02498,-0.012 -0.042,-0.054 -0.06696,-0.067 -0.0235,-0.012 -0.155303,0.012 -0.167411,0 -0.01395,-0.014 0.01395,-0.053 0,-0.067 -0.02792,-0.028 -0.07254,0.028 -0.100449,0 -0.01395,-0.014 0.01395,-0.053 0,-0.067 -0.02792,-0.028 -0.106017,0.028 -0.133928,0 -0.01395,-0.014 0.01395,-0.019 0,-0.033 -0.01397,-0.014 -0.053,0.014 -0.06696,0 -0.01395,-0.014 0.01396,-0.052 0,-0.067 -0.01397,-0.014 -0.04933,0.011 -0.06696,0 -0.02498,-0.012 -0.0083,-0.053 -0.03348,-0.067 -0.01766,-0.011 -0.053,0.014 -0.06696,0 -0.01395,-0.014 0.01395,-0.052 0,-0.067 -0.01397,-0.014 -0.053,0.014 -0.06696,0 -0.03123,-0.031 -0.03579,-0.07 -0.06696,-0.1007 -0.01397,-0.014 -0.01585,0.011 -0.03348,0 -0.02498,-0.012 -0.04201,-0.055 -0.06696,-0.067 -0.01766,-0.011 -0.053,0.014 -0.06696,0 -0.01395,-0.014 0.01396,-0.053 0,-0.067 -0.231053,-0.231 -0.02161,0.04 -0.167413,-0.033 -0.02498,-0.012 -0.042,-0.053 -0.06696,-0.067 -0.03531,-0.018 -0.07254,0.028 -0.100448,0 -0.01395,-0.014 0.01395,-0.052 0,-0.067 -0.02792,-0.028 -0.106021,0.028 -0.13393,0 -0.01395,-0.013 0.01396,-0.052 0,-0.067 -0.02792,-0.028 -0.106023,0.028 -0.133931,0 -0.01396,-0.014 0.01765,-0.057 0,-0.067 -0.03531,-0.018 -0.06097,0 -0.100447,0 -0.01973,0 -0.053,0.014 -0.06696,0 -0.01396,-0.014 0.01396,-0.019 0,-0.033 -0.01396,-0.014 -0.04722,0 -0.06696,0 l -0.167413,0 -0.234377,0 -0.167413,0 c -0.01395,-0.014 0.01396,-0.053 0,-0.067 -0.01114,-0.011 -0.203962,0.011 -0.234377,0 -0.157876,-0.099 -0.265754,-0.1242 -0.334825,-0.134 z"
       id="path3741" />
    <path
       style="color:#000000;fill:#ffffff;fill-opacity:1;fill-rule:nonzero;stroke:none;stroke-width:1px;marker:none;visibility:visible;display:inline;overflow:visible;enable-background:accumulate"
       d="m 14.935785,1041.3466 c 0,-0.028 0.03905,0.067 0.06696,0.067 0.01973,0 0.01395,-0.052 0,-0.067 -0.01397,-0.013 -0.053,0.014 -0.06696,0 z"
       id="path3739" />
    <path
       style="color:#000000;fill:url(#linearGradient3751-2);fill-opacity:1;fill-rule:nonzero;stroke:none;stroke-width:1px;marker:none;visibility:visible;display:inline;overflow:visible;enable-background:accumulate"
       d="m 1.8776134,1041.581 c -0.095151,0 -0.1831295,0.091 -0.2678599,0.134 0.1497221,-0.087 0.0375,-0.043 -0.066966,0 -0.01396,0.014 -0.019532,-0.014 -0.033482,0 -0.01395,0.014 0.01395,0.053 0,0.067 -0.013961,0.014 -0.053015,-0.014 -0.066965,0 -0.01395,0.014 0.01395,0.019 0,0.033 -0.013961,0.014 -0.053015,-0.014 -0.066965,0 -0.01395,0.014 0.00879,0.049 0,0.067 -0.012482,0.024 -0.054482,0.043 -0.066965,0.067 -0.017647,0.036 0.027911,0.1061 0,0.134 -0.029604,0.03 -0.055864,0.021 -0.066965,0 8.673e-4,0 -9.251e-4,0.025 0,0.033 l 0,0.067 0,0.067 c -0.00566,-0.011 0.0031,-0.011 -0.033483,0.067 -0.017646,0.035 0.017647,0.065 0,0.1007 -0.012482,0.024 -0.054483,0.043 -0.066965,0.067 -0.040109,0.08 0.031849,0.068 0.066965,0.067 -0.014243,0.024 -0.05415,0.088 -0.13393,0.1675 8.857e-4,0.062 -0.031576,0.1086 -0.066965,0.134 -0.00493,0.024 -0.019736,0.033 0,0.033 0,0.019 0.00879,0.05 0,0.067 -0.049088,0.099 -0.033164,0.091 -0.033482,0.067 -0.012482,0.024 -0.054483,0.043 -0.066965,0.067 -0.034118,0.069 0.094917,0.1674 -0.13393,0.1674 0,0.019 0.00621,0.049 0,0.067 -0.015371,0.046 -0.024775,0.014 -0.033483,0.033 l 0,0.067 c 0,0.019 0.01395,0.053 0,0.067 -0.013961,0.014 -0.053015,-0.014 -0.066965,0 -0.01395,0.014 0,0.048 0,0.067 l 0,0.402 0,0.134 0,0.1674 0,0.067 0,0.033 c -4.534e-4,0.059 -0.00202,0.201 0,0.201 0.013961,0.014 0.053015,-0.014 0.066965,0 0.0162,0.016 -0.016061,0.2022 0,0.2344 0.012482,0.024 0.021,0.011 0.033483,0.033 0.00772,0.014 0.00249,0.1691 0,0.268 l 0,0.033 0,0.067 0,0.067 0,0.067 0,0.033 c -4.32e-4,0.049 -0.00154,0.134 0,0.134 0.013961,0.014 0.053015,-0.014 0.066965,0 0.01395,0.014 0,0.048 0,0.067 l 0,0.033 0,0.067 0,0.067 c 0,0.1389 -0.00619,-0.046 0.066965,0.1008 0.011732,0.023 -0.012107,0.1892 0,0.2011 0.013961,0.014 0.053015,-0.014 0.066965,0 0.018332,0.018 -0.018332,0.2832 0,0.3014 0.013961,0.014 0.019533,-0.014 0.033483,0 0.01395,0.014 0,0.014 0,0.033 l 0,0.067 0,0.067 0,0.067 c -3.703e-4,0.05 -0.00115,0.1008 0,0.1008 0.013961,0.014 0.053015,-0.014 0.066965,0 0.01395,0.014 0,0.047 0,0.067 l 0,0.067 c -0.019736,0 -0.00879,0.049 0,0.067 0.012482,0.024 0.054483,0.011 0.066965,0.033 0.023679,0.047 -0.023679,0.1538 0,0.201 0.00883,0.017 0.053015,-0.014 0.066965,0 0.027911,0.029 -0.027911,0.073 0,0.1008 0.013961,0.013 0.019532,-0.014 0.033483,0 0.027911,0.028 -0.027911,0.1061 0,0.134 0.013961,0.013 0.053015,-0.014 0.066965,0 0.029604,0.03 -0.029604,0.1375 0,0.1675 0.013961,0.014 0.058179,-0.017 0.066965,0 0.00882,0.017 0.00221,0.047 0,0.067 0.019737,0 0,0.088 0,0.067 0.012482,0.024 0.054482,0.011 0.066965,0.033 0.00879,0.018 -0.01395,0.053 0,0.067 0.013961,0.014 0.053015,-0.014 0.066965,0 0.027911,0.028 -0.027911,0.1062 0,0.134 0.013961,0.014 0.019532,-0.014 0.033482,0 0.01395,0.014 -0.00878,0.016 0,0.033 0.012482,0.024 0.054482,0.043 0.066966,0.067 0.00877,0.017 -0.01395,0.053 0,0.067 0.013961,0.014 0.053017,-0.014 0.066966,0 0.027912,0.029 -0.012481,0.063 0,0.1007 0.013961,0.041 0.022833,0.134 0.066966,0.134 0,0.019 -0.013951,0.053 0,0.067 0.013961,0.014 0.019531,-0.014 0.033481,0 0.027912,0.028 -0.027912,0.073 0,0.1007 0.013961,0.014 0.053016,-0.014 0.066967,0 0.01395,0.014 -0.01395,0.053 0,0.067 0.013961,0.014 0.053017,-0.014 0.066967,0 0.01395,0.014 -0.01395,0.053 0,0.067 0.013961,0.014 0.053016,-0.014 0.066966,0 0.01395,0.014 -0.01395,0.019 0,0.033 0.013961,0.014 0.019531,-0.014 0.033481,0 0.027912,0.028 -0.017648,0.099 0,0.134 0.01248,0.024 0.058179,0.04 0.066967,0.067 0.00834,0.024 0.00277,0.04 0,0.067 -0.019735,0 0,0.014 0,0.033 0,0.04 -0.017648,0.099 0,0.134 0.00881,0.017 0.060751,-0.018 0.066964,0 0.00749,0.022 8.985e-4,0.043 0,0.067 l 0,0.033 c 0,0.1389 -0.0062,-0.013 0.066967,0.134 0.00877,0.017 -0.01395,0.053 0,0.067 0.013961,0.014 0.053016,-0.014 0.066964,0 0.01395,0.014 -0.013951,0.019 0,0.033 0.013961,0.014 0.015838,-0.011 0.033481,0 0.024964,0.012 0.042002,0.054 0.066967,0.067 0.035304,0.017 0.1060188,-0.028 0.1339299,0 0.013951,0.014 -0.013951,0.053 0,0.067 0.027915,0.028 0.072536,-0.028 0.1004475,0 0.01395,0.014 -0.00877,0.05 0,0.067 0.012481,0.024 0.047228,0.014 0.066964,0.033 0.019737,0.019 0.042002,0.054 0.066966,0.067 0.017659,0.011 0.019531,-0.014 0.033481,0 0.01395,0.014 -0.00877,0.049 0,0.067 0.046211,0.092 0.064833,0.045 0.066964,0.033 0.00721,-0.011 0.036343,0 0.066967,0.033 0.01395,0.013 -0.013951,0.053 0,0.067 0.013961,0.014 0.053016,-0.014 0.066964,0 0.01395,0.014 -0.013951,0.019 0,0.033 0.013961,0.013 0.019531,-0.014 0.033481,0 0.027912,0.029 -0.027912,0.1061 0,0.134 0.013961,0.014 0.053016,-0.014 0.066966,0 0.013951,0.014 -0.013951,0.053 0,0.067 0.027914,0.028 0.1060189,-0.028 0.1339299,0 0.013951,0.014 -0.01395,0.019 0,0.033 0.013961,0.014 0.053015,-0.014 0.066966,0 0.027912,0.028 -0.017648,0.099 0,0.134 0.012481,0.024 0.021001,0.042 0.033481,0.067 0.00877,0.018 -0.013951,0.019 0,0.033 0.013961,0.014 0.053016,-0.014 0.066967,0 0.027912,0.029 -0.027912,0.1061 0,0.134 0.013961,0.014 0.049319,-0.011 0.066964,0 0.049921,0.026 0.050519,0.076 0.1004476,0.1008 0.017659,0.011 0.053016,-0.014 0.066967,0 0.01395,0.014 -0.01395,0.053 0,0.067 0.072905,0.072 0.13393,-0.1653 0.13393,0.134 0.01395,0.014 -0.013951,0.053 0,0.067 0.013961,0.014 0.014335,0 0.033481,0 0.040908,0.011 0.094414,0.019 0.1339299,0.033 0.028156,0 0.080918,0.014 0.066966,0 l 0.1674122,0 c 0.02678,0 0.352525,0.011 0.368308,0 0.02496,-0.012 0.01375,-0.013 0.03348,-0.033 0.01974,-0.019 0.05448,-0.043 0.06697,-0.067 0.01765,-0.035 -0.01765,-0.099 0,-0.134 0.01248,-0.024 0.05448,-0.043 0.06696,-0.067 0.009,-0.018 0,-0.1407 0,-0.1675 l 0,-0.469 c 0,-0.027 0.009,-0.1494 0,-0.1676 -0.01248,-0.024 -0.05448,-0.043 -0.06696,-0.067 -0.01765,-0.036 0.02791,-0.1061 0,-0.134 -0.01396,-0.014 -0.04932,0.011 -0.06697,0 -0.04992,-0.026 -0.05052,-0.077 -0.100448,-0.1008 -0.01766,-0.011 -0.04932,0.011 -0.06696,0 -0.02496,-0.012 -0.04723,-0.047 -0.06697,-0.067 -0.01974,-0.019 -0.021,-0.042 -0.03348,-0.067 -0.0088,-0.017 0.0088,-0.016 0,-0.033 -0.02496,-0.049 -0.108965,-0.083 -0.13393,-0.134 -0.0088,-0.017 0.01395,-0.053 0,-0.067 -0.01396,-0.014 -0.05302,0.014 -0.06696,0 -0.01395,-0.014 0.01395,-0.019 0,-0.033 -0.01396,-0.014 -0.01953,0.014 -0.03348,0 -0.01395,-0.014 0.01395,-0.052 0,-0.067 -0.01396,-0.014 -0.053016,0.014 -0.066967,0 -0.01395,-0.014 0.00877,-0.049 0,-0.067 -0.012482,-0.025 -0.054483,-0.042 -0.066965,-0.067 -0.00877,-0.017 0,-0.047 0,-0.067 l 0,-0.033 0,-0.201 0,-0.033 c 0,-0.019 -0.00877,-0.049 0,-0.067 0.012482,-0.024 0.047228,-0.047 0.066965,-0.067 0.019737,-0.019 0.047228,-0.047 0.066967,-0.067 0.0592,-0.059 0.100426,-0.1171 0.167412,-0.1675 0.0353,-0.026 0.06373,-0.043 0.100448,-0.067 0.02323,-0.014 0.042,-0.02 0.06697,-0.033 0.01766,-0.011 0.05302,0.014 0.06696,0 0.01395,-0.014 -0.01765,-0.057 0,-0.067 0.07061,-0.036 0.163769,0.036 0.234377,0 0.01765,-0.011 -0.01395,-0.052 0,-0.067 0.12248,-0.1222 0.01073,0.1796 0.13393,-0.067 0.0088,-0.017 0,-0.014 0,-0.033 l 0,-0.067 0,-0.3014 0,-0.067 c 0,-0.019 -0.0088,-0.049 0,-0.067 0.01248,-0.024 0.0247,-0.011 0.03348,-0.033 0.01248,-0.038 -0.0095,-0.096 0,-0.134 0.0107,-0.043 0.05302,-0.059 0.06697,-0.1008 0.0062,-0.018 0,-0.047 0,-0.067 l 0,-0.3687 c 0,-0.013 0.0067,-0.2215 0,-0.2344 -0.01248,-0.024 -0.04723,-0.047 -0.06697,-0.067 -0.103808,-0.1029 -0.07515,-0.073 -0.301342,-0.1008 -0.137076,-0.017 -0.263648,0 -0.40179,0 -0.01974,0 -0.05302,-0.014 -0.06696,0 -0.01211,0.012 0.01173,0.144 0,0.1675 -0.01248,0.024 -0.021,0.043 -0.03348,0.067 -0.023678,0.048 0.02368,0.1203 0,0.1675 -0.01248,0.024 -0.054483,0.042 -0.066964,0.067 -0.017648,0.035 0.017648,0.065 0,0.1007 -0.024968,0.05 -0.1089653,0.083 -0.1339299,0.134 -0.040831,0.082 0.063938,0.069 -0.066965,0.134 -0.017659,0.011 -0.013746,0 -0.033481,0 l -0.3013424,0 -0.1674125,0 c -0.019735,0 -0.053015,0.014 -0.066967,0 -0.01395,-0.014 0,-0.047 0,-0.067 0,-0.031 -0.00783,-0.2196 0,-0.2346 0.012482,-0.024 0.054483,-0.043 0.066967,-0.067 0.00877,-0.017 0,-0.047 0,-0.067 l 0,-0.067 0,-0.268 c 0,-0.019 -0.00877,-0.049 0,-0.067 0.01248,-0.024 0.021001,-0.043 0.033481,-0.067 0.00877,-0.017 0,-0.048 0,-0.067 l 0,-0.335 c 0,-0.019 0.01395,-0.053 0,-0.067 -0.013961,-0.014 -0.015836,0.011 -0.033481,0 -0.024964,-0.012 -0.040489,-0.057 -0.066967,-0.067 -0.037436,-0.012 -0.098627,0.018 -0.1339299,0 -0.017648,-0.011 0.013951,-0.053 0,-0.067 -0.013961,-0.014 -0.053016,0.014 -0.066964,0 -0.01395,-0.014 0.013951,-0.019 0,-0.033 -0.027914,-0.028 -0.072535,0.028 -0.1004474,0 -0.013951,-0.014 0.01095,-0.05 0,-0.067 -0.1024228,-0.1538 -0.1329177,-0.1375 -0.13393,-0.1675 -0.019735,0 0,-0.088 0,-0.067 -0.012481,-0.024 -0.021001,-0.043 -0.033481,-0.067 -0.00877,-0.017 0,-0.047 0,-0.067 -0.019737,0 -0.053015,0.014 -0.066966,0 -0.013951,-0.014 0.01395,-0.019 0,-0.033 -0.013961,-0.014 -0.053016,0.014 -0.066964,0 -0.013951,-0.014 0,-0.047 0,-0.067 l 0,-0.067 0,-0.3015 0,-0.067 c 0,-0.019 -0.00877,-0.016 0,-0.033 0.073158,-0.1463 0.066964,0 0.066964,-0.134 l 0,-0.067 c 0,-0.019 -0.013951,-0.019 0,-0.033 0.098679,-0.099 0.066966,0.2015 0.066966,-0.1341 0.017651,-0.036 0.072536,0.028 0.1004475,0 0.013951,-0.013 -0.01395,-0.053 0,-0.067 0.013961,-0.014 0.053016,0.014 0.066965,0 0.01395,-0.014 -0.013951,-0.019 0,-0.033 0.013961,-0.014 0.053016,0.014 0.066965,0 0.01658,-0.016 -0.07879,-0.3471 0.1004475,-0.201 0.016427,-0.011 0.053015,0.014 0.066965,0 0.01395,-0.013 -0.00877,-0.016 0,-0.033 0.065456,-0.1308 0.052266,-0.026 0.1339299,-0.067 0.024964,-0.012 0.013746,-0.047 0.033481,-0.067 0.019735,-0.019 0.047228,-0.048 0.066967,-0.067 0.073634,-0.074 0.073343,-0.04 0.066965,-0.033 0.00391,0.011 0.023408,-0.012 0.066966,-0.033 0.049921,-0.025 0.050519,-0.076 0.1004475,-0.1007 0.015567,-0.011 0.2034236,0 0.2343775,0 l 0.1339299,0 c 0.059201,0 0.1099725,0.014 0.1674125,0 0.02707,-0.011 0.042,-0.053 0.06696,-0.067 0.03721,-0.018 0.197166,0.018 0.234377,0 0.02496,-0.012 0.042,-0.053 0.06697,-0.067 0.01766,-0.011 0.01953,0.014 0.03348,0 0.02791,-0.028 -0.02791,-0.073 0,-0.1008 0.01396,-0.014 0.05302,0.014 0.06696,0 0.01395,-0.014 0,-0.047 0,-0.067 l 0,-0.1008 c 0,-0.027 0.009,-0.1828 0,-0.201 -0.03552,-0.071 -0.131894,-0.097 -0.167412,-0.1675 -0.0088,-0.017 0.0088,-0.049 0,-0.067 -0.01248,-0.024 -0.05448,-0.043 -0.06696,-0.067 -0.0088,-0.017 0.0088,-0.016 0,-0.033 -0.01248,-0.024 -0.05448,-0.042 -0.06697,-0.067 -0.01765,-0.037 0.02791,-0.1061 0,-0.134 -0.01396,-0.014 -0.01953,0.014 -0.03348,0 -0.01395,-0.014 0.0088,-0.016 0,-0.033 -0.01248,-0.024 -0.05448,-0.043 -0.06697,-0.067 -0.03255,-0.065 0.04925,-0.1095 -0.06696,-0.1674 -0.0535,-0.027 -0.1427804,0.022 -0.1674129,0.033 -0.01873,0.011 -0.053015,-0.014 -0.066965,0 -0.013951,0.014 0.01395,0.053 0,0.067 -0.013961,0.014 -0.047228,0 -0.066965,0 l -0.066965,0 -0.1004477,0 c -0.019735,0 -0.049319,0.011 -0.066967,0 -0.024964,-0.012 -0.042002,-0.054 -0.066965,-0.067 -0.1047997,-0.048 -0.00229,0.1139 -0.1004476,-0.033 -0.024481,-0.037 -0.035762,-0.1029 -0.066967,-0.134 l -0.1674125,0 -0.4687549,0 c -0.030959,0 -0.2188093,0.011 -0.2343774,0 -0.015718,-0.011 -0.1930735,-0.1515 -0.2008951,-0.1675 -0.00877,-0.017 0.01395,-0.053 0,-0.067 -9.31e-5,-10e-5 -0.1669613,2e-4 -0.1674122,0 -0.097398,-0.032 -0.1653769,-0.134 -0.2678602,-0.134 z"
       id="path3737" />
    <path
       style="color:#000000;fill:#ffffff;fill-opacity:1;fill-rule:nonzero;stroke:none;stroke-width:1px;marker:none;visibility:visible;display:inline;overflow:visible;enable-background:accumulate"
       d="m 3.7526331,1050.827 c 0,0.028 -0.039054,-0.067 -0.066965,-0.067 -0.019737,0 -0.01395,0.053 0,0.067 0.013961,0.014 0.053015,-0.014 0.066965,0 z"
       id="path3735" />
    <path
       style="color:#000000;fill:#ffffff;fill-opacity:1;fill-rule:nonzero;stroke:none;stroke-width:1px;marker:none;visibility:visible;display:inline;overflow:visible;enable-background:accumulate"
       d="m 0.7726912,1043.256 c 0.019736,-0.019 0.054483,-0.043 0.066965,-0.067 0.00879,-0.017 0.01395,-0.08 0,-0.067 -0.0312,0.031 -0.1110869,0.134 -0.066965,0.134 z"
       id="path3733" />
    <path
       style="color:#000000;fill:url(#linearGradient3751);fill-opacity:1;fill-rule:nonzero;stroke:none;stroke-width:1px;marker:none;visibility:visible;display:inline;overflow:visible;enable-background:accumulate"
       d="m 8.607595,1046.9746 c -0.02762,0.011 -0.01965,0.044 -0.03348,0.033 -0.115148,0.048 -0.07061,0.011 -0.100448,0.067 -0.0081,0.016 -0.057,0.067 -0.06696,0.067 -0.03372,0.037 -0.05313,0.044 -0.06697,0.033 -0.01599,0 -0.06696,0.134 -0.06696,0.134 -0.0099,0.02 -0.09198,0.1674 -0.100447,0.1674 -0.0991,0.022 -0.303346,0.02 -0.40179,0.033 -0.06761,0.011 -0.137262,0.014 -0.200895,0.033 -0.03608,0.018 -0.04623,0.044 -0.100447,0.067 -0.0069,0 -0.397365,0 -0.368308,0.067 -0.0061,0.047 0.05313,0.057 0.06697,0.067 0.02384,0.062 -0.09774,0 0.03348,0.067 l -0.100447,0.268 c 0.371793,0.1833 0.463408,0.2154 0.569202,0.268 0.06295,0.023 0.112083,0.011 0.167412,0.033 0.01956,0.011 0.0474,0.022 0.06697,0.033 0.02765,0.011 0.07278,-0.047 0.100448,-0.033 0.01956,0.011 0.01393,0.022 0.03348,0.033 0.02765,0.011 0.07278,-0.014 0.100447,0 0.01956,0.011 0.04509,0.022 0.06697,0.033 l 0.06697,0.033 c 0.131221,0.064 0.270569,0.1366 0.40179,0.201 0.08748,0.043 0.180388,0.091 0.26786,0.134 0.02188,0.011 0.05721,0.033 0.06696,0.033 0.0058,0.013 -0.100447,0.1674 -0.100447,0.1674 -0.04987,0.1008 -0.117826,0.2008 -0.167413,0.3016 -0.0058,0.012 -0.07672,0.1674 -0.06697,0.1674 -0.0061,0.048 0.02373,0.1008 0.03348,0.1008 0.0058,0.023 -0.06441,0.018 -0.03348,0.033 0.02901,0.064 0.13903,0.103 0.200895,0.1341 0.02765,0.014 0.0058,0.087 0.03348,0.1008 0.01957,0.011 0.04741,-0.011 0.06697,0 0.02765,0.014 0.0058,0.087 0.03348,0.1006 0.155912,0.1271 0.313524,0.2083 0.502237,0.3017 l 0.06696,0.033 c 0.02188,0.011 0.04741,-0.011 0.06697,0 0.02767,0.011 0.07111,-0.014 0.100448,0 0.0415,0.02 0.09243,0.046 0.13393,0.067 0.02935,0.012 0.0451,-0.011 0.06696,0 0.0518,0.011 0.123665,-0.021 0.167412,0 0.04177,-0.032 0.07858,-0.011 0.100448,0 0.04177,-0.032 0.05313,-0.044 0.06697,-0.033 0.01033,9e-4 0.06697,-0.1008 0.06697,-0.1008 0.0172,-0.036 0.01359,-0.06 0.03348,-0.1007 0.0079,-0.016 0.04404,-0.067 0.03348,-0.067 -0.0026,-0.038 -0.03981,-0.053 -0.03348,-0.1008 9.67e-4,-0.034 0.04707,-0.093 0.06697,-0.1339 0.01422,-0.029 0.02634,-0.071 0.06696,-0.1008 0.02968,-0.039 0.05312,-0.011 0.06696,0 0.02964,-0.041 0.02372,-0.033 0.03348,-0.033 0.03373,-0.037 0.04509,-0.043 0.06696,-0.033 0.04178,-0.032 0.07276,-0.014 0.100446,0 0.03913,0.019 0.0948,0.048 0.133931,0.067 0.05324,0.014 0.06001,0 0.06696,0 -0.0097,-0.012 -0.01541,-0.011 0.133929,0.067 0.02409,0.012 0.265181,0.1008 0.267861,0.1008 0.01551,0.011 0.01801,-0.043 0.03348,-0.033 0.107376,0 0.02354,0.084 0.133929,0.033 0.02185,-0.011 0.03348,-0.067 0.03348,-0.067 0.0199,-0.041 0.02373,-0.033 0.03348,-0.033 0.03372,-0.037 0.05312,-0.011 0.06696,0 0.02967,-0.041 0.02372,-0.067 0.03348,-0.067 0.07819,-0.031 0.134573,0.068 0.234378,0.067 0.01551,0.011 0,-0.067 0,-0.067 0.0156,-0.031 0.111556,-0.1569 0.100447,-0.1676 0.0063,-0.047 -0.01965,-0.09 -0.03348,-0.1007 -0.01393,-0.039 0.03981,-0.013 0.03348,-0.067 -0.03277,-0.1168 -0.0099,-0.056 -0.100447,-0.1007 -0.02767,-0.014 -0.03929,-0.053 -0.06696,-0.067 -0.01956,-0.011 -0.0474,-0.022 -0.06696,-0.033 -0.02767,-0.014 -0.006,-0.087 -0.03348,-0.1008 -0.01727,-0.011 -0.233553,-0.083 -0.267862,-0.1007 l -0.636167,-0.3351 c -0.06561,-0.033 -0.136562,-0.069 -0.200894,-0.1007 -0.25598,-0.1432 -0.02064,-0.046 -0.167414,-0.1675 -0.04198,-0.071 -0.143355,-0.1061 -0.200896,-0.134 -0.01819,-0.011 0.03348,-0.033 0.03348,-0.033 0.01156,-0.023 0.07659,-0.1674 0.06697,-0.1674 -0.0098,0 -0.05722,-0.033 -0.06697,-0.033 -0.0115,-0.026 0.04731,-0.022 0.03348,-0.033 0.01011,-0.045 -0.01965,-0.09 -0.03348,-0.1008 -0.0064,-0.02 0.04689,-0.057 0.03348,-0.067 -0.01548,-0.011 -0.04741,-0.022 -0.06697,-0.033 -0.02766,-0.014 -0.0058,-0.052 -0.03348,-0.067 -0.01957,-0.011 -0.04741,-0.022 -0.06697,-0.033 -0.02766,-0.014 -0.0393,-0.087 -0.06697,-0.1008 -0.01996,-0.011 -0.137862,-0.051 -0.167411,-0.067 -0.131222,-0.065 -0.270568,-0.1367 -0.40179,-0.201 -0.441017,-0.2174 -0.110936,-0.061 -0.636168,-0.2346 -0.08644,-0.028 -0.253899,-0.1219 -0.334825,-0.1007 z"
       id="path3888" />
    <path
       sodipodi:type="arc"
       style="color:#000000;fill:none;stroke:#2b4265;stroke-width:0.44956996999999999;stroke-miterlimit:4;stroke-opacity:1;stroke-dasharray:none;marker:none;visibility:visible;display:inline;overflow:visible;enable-background:accumulate"
       id="path3102-9"
       sodipodi:cx="-7.5"
       sodipodi:cy="-1"
       sodipodi:rx="7"
       sodipodi:ry="6.5"
       d="m -0.5,-1 a 7,6.5 0 1 1 -14,0 7,6.5 0 1 1 14,0 z"
       transform="matrix(1.0714398,0,0,1.1544567,16.035877,1045.5127)" />
  </g>
</svg>
